<?xml version="1.0" encoding="UTF-8" standalone="no"?>
<svg
   width="581.02899"
   height="395.54657"
   version="1.2"
   viewBox="0 0 435.77174 296.66014"
   id="svg19"
   sodipodi:docname="alpine.svg"
   inkscape:version="1.3.2 (9e3d6414e7, 2024-01-14, custom)"
   xmlns:inkscape="http://www.inkscape.org/namespaces/inkscape"
   xmlns:sodipodi="http://sodipodi.sourceforge.net/DTD/sodipodi-0.dtd"
   xmlns="http://www.w3.org/2000/svg"
   xmlns:svg="http://www.w3.org/2000/svg">
  <defs
     id="defs19" />
  <sodipodi:namedview
     id="namedview19"
     pagecolor="#505050"
     bordercolor="#eeeeee"
     borderopacity="1"
     inkscape:showpageshadow="0"
     inkscape:pageopacity="0"
     inkscape:pagecheckerboard="0"
     inkscape:deskcolor="#505050"
     inkscape:zoom="0.40271493"
     inkscape:cx="-80.702247"
     inkscape:cy="-208.58427"
     inkscape:window-width="1680"
     inkscape:window-height="951"
     inkscape:window-x="0"
     inkscape:window-y="25"
     inkscape:window-maximized="1"
     inkscape:current-layer="g19" />
  <g
     transform="matrix(1.7725,0,0,1.7725,-1031.5241,-516.44889)"
     id="g19"
     style="fill:#0083d7">
    <g
       id="g18"
       style="fill:#0083d7"
       transform="translate(21.635865,14.386864)">
      <g
         fill="#02192b"
         id="g15"
         style="fill:#0083d7">
        <path
           d="m 613.26,393.02 27.172,0.0195 29.094,-22.488 h 49.402 l -7.3281,22.488 h 21.977 l 7.2812,-22.488 h 24.766 l 18.422,-14.266 h -38.508 l 21.137,-64.918 h -22.004 l -83.902,64.918 h -33.168 l 9.1484,-28.098 -54.781,42.363 h 60.348 z m 122.29,-73.535 -11.961,36.801 h -35.613 z"
           id="path1"
           style="fill:#0083d7" />
        <path
           d="m 581.96,428.86 h 5.5352 l 2.9258,-3.3008 H 606.3 l 2.9297,3.3008 h 5.5352 l -16.402,-17.914 z m 11.266,-6.4258 5.1367,-5.7812 5.1367,5.7812 z"
           id="path10"
           style="fill:#0083d7" />
        <path
           d="m 702,411.5 h -4.6875 v 17.367 H 702 Z"
           id="path11"
           style="fill:#0083d7"
           inkscape:label="path11" />
        <path
           d="m 741.03,422.21 -19.402,-10.719 h -4.7383 v 17.367 h 4.3438 V 416.03 l 24.188,13.324 v -17.863 h -4.3906 z"
           id="path12"
           style="fill:#0083d7" />
        <path
           d="m 629.53,411.5 h -4.6914 v 17.367 h 21.316 l 1.3125,-3.125 h -17.938 z"
           id="path13"
           style="fill:#0083d7" />
        <path
           d="m 765,425.74 v -4.1445 h 19.031 v -3.125 H 765 v -3.8477 h 19.031 v -3.125 h -23.719 v 17.367 h 23.469 l 0.87109,-3.125 z"
           id="path14"
           style="fill:#0083d7" />
        <path
           d="m 677.39,411.5 h -20.07 v 17.367 h 4.6875 v -5.8047 h 15.16 c 5.6328,0 7.8164,-2.3594 7.8164,-5.8555 0,-3.375 -2.3828,-5.707 -7.5938,-5.707 m -1.1172,8.4336 h -14.266 v -5.3086 h 14.242 c 2.8281,0 3.6953,0.86719 3.6953,2.707 0,1.6094 -1.2148,2.6016 -3.6719,2.6016"
           id="path15"
           style="fill:#0083d7" />
      </g>
    </g>
  </g>
</svg>
