<svg version="1.0" xmlns="http://www.w3.org/2000/svg" width="922.000000pt" height="814.000000pt" viewBox="0 0 922.000000 814.000000" preserveAspectRatio="xMidYMid meet">

<g transform="translate(0.000000,814.000000) scale(0.100000,-0.100000)" fill="#e82f2f" stroke="none">
<path d="M4880 8130 c-36 -5 -119 -13 -185 -20 -232 -22 -560 -92 -802 -171 -671 -218 -1313 -635 -1771 -1151 -675 -761 -1028 -1686 -1036 -2708 0 -124 -5 -231 -9 -238 -7 -10 -65 -13 -268 -11 -217 1 -263 -1 -282 -14 -14 -9 -125 -196 -266 -446 -134 -237 -247 -434 -252 -437 -5 -3 -9 -12 -9 -20 0 -12 87 -14 618 -14 339 0 622 -4 629 -8 6 -4 37 -79 68 -167 208 -586 527 -1090 964 -1526 569 -568 1297 -959 2065 -1108 311 -61 461 -75 801 -76 324 0 408 6 679 51 1583 261 2876 1455 3270 3019 74 294 101 498 123 910 10 200 -25 581 -78 854 -131 665 -432 1296 -874 1828 -106 127 -332 358 -460 468 -396 342 -895 623 -1400 789 -407 134 -869 208 -1285 205 -96 -1 -204 -5 -240 -9z m551 -930 c685 -68 1312 -348 1834 -820 64 -58 118 -114 121 -126 4 -15 -31 -82 -119 -230 -298 -502 -1315 -2241 -1348 -2305 l-20 -40 -55 50 c-66 61 -136 85 -285 101 -143 14 -341 13 -361 -2 -9 -7 -36 -49 -60 -93 -63 -113 -426 -797 -434 -818 -6 -16 11 -17 232 -17 211 0 244 -3 280 -19 74 -34 111 -105 101 -198 -6 -53 -48 -158 -86 -211 -10 -15 -96 -164 -190 -332 l-171 -305 516 -3 c405 -2 522 1 536 10 11 7 475 809 1031 1782 557 973 1017 1769 1022 1769 16 1 72 -100 106 -187 134 -347 224 -948 198 -1318 -47 -673 -264 -1249 -659 -1748 -103 -130 -381 -409 -515 -515 -817 -651 -1855 -854 -2865 -559 -441 128 -901 393 -1223 703 l-58 56 438 5 437 5 426 750 c234 413 566 1000 739 1305 173 305 546 962 829 1460 613 1077 555 972 539 982 -6 4 -242 8 -523 8 -473 0 -513 -1 -531 -17 -11 -10 -137 -223 -281 -473 -745 -1302 -1154 -2006 -1170 -2012 -9 -4 -422 -7 -918 -7 -735 -1 -904 1 -918 12 -17 13 -18 30 -13 273 9 417 59 694 189 1044 161 433 400 803 733 1135 205 205 390 348 648 500 344 201 788 349 1187 394 52 6 109 13 125 15 71 8 441 5 536 -4z m-2111 -4304 c0 -7 -509 -889 -518 -898 -22 -22 -287 344 -410 567 -59 107 -152 305 -152 325 0 6 194 10 540 10 297 0 540 -2 540 -4z" fill="#e82f2f"/>
</g>
</svg>