<svg version="1.0" xmlns="http://www.w3.org/2000/svg" width="5336.000000pt" height="6669.000000pt" viewBox="0 0 5336.000000 6669.000000" preserveAspectRatio="xMidYMid meet">

<g transform="translate(0.000000,6669.000000) scale(0.100000,-0.100000)" fill="#ffffff" stroke="none">
<path d="M25357 66670 c-53 -19 70 -16 -1812 -40 -1187 -16 -2118 -35 -3080 -65 -538 -17 -1184 -42 -1290 -50 -489 -38 -831 -162 -1122 -406 -152 -128 -536 -605 -773 -959 -183 -274 -2858 -4696 -3960 -6545 -3130 -5255 -6614 -11417 -8792 -15555 -1027 -1951 -2498 -4820 -3586 -6995 -422 -845 -537 -1099 -669 -1475 -105 -300 -157 -507 -228 -916 l-45 -258 0 -267 c0 -212 3 -268 13 -272 8 -3 20 -46 31 -113 50 -314 162 -665 342 -1071 61 -137 1264 -2539 1759 -3513 1256 -2470 3406 -6561 4548 -8655 1202 -2205 2765 -4944 5000 -8765 2549 -4357 4459 -7518 5660 -9365 257 -396 345 -512 513 -681 277 -276 572 -433 932 -494 358 -60 657 -85 1322 -110 2130 -79 4941 -116 6840 -90 388 5 1121 14 1630 20 1706 19 2598 34 3630 60 789 20 1731 54 1960 70 506 36 861 168 1159 429 135 118 535 622 748 941 188 283 2767 4541 3900 6440 2521 4226 5231 8969 7490 13110 818 1499 1407 2619 2571 4890 923 1801 2864 5668 2972 5920 227 532 352 1167 337 1722 -7 297 -50 522 -158 834 -87 252 -133 349 -877 1859 -719 1461 -1199 2406 -2340 4605 -1594 3075 -2703 5163 -3650 6875 -2640 4771 -7799 13553 -9918 16882 -521 819 -669 1035 -837 1223 -249 279 -564 475 -882 548 -208 48 -710 105 -1070 122 -1154 52 -2301 77 -3965 86 -1137 6 -1210 7 -1288 25 -80 18 -140 19 -1525 18 -1337 -2 -1446 -3 -1490 -19z m8356 -1455 c15 -13 27 -28 27 -33 0 -20 -73 -167 -314 -631 -1455 -2795 -2719 -5383 -3861 -7901 -465 -1024 -681 -1522 -1518 -3490 -196 -459 -388 -909 -427 -1000 -113 -259 -122 -284 -121 -370 0 -41 7 -94 15 -117 8 -23 158 -309 334 -635 1128 -2095 2167 -4078 3327 -6353 378 -742 2125 -4239 2520 -5045 1172 -2390 1723 -3553 2380 -5016 257 -572 285 -642 334 -849 104 -440 100 -415 79 -415 -10 0 -18 -7 -18 -15 0 -9 9 -15 21 -15 14 0 19 -5 16 -14 -3 -7 -30 -121 -61 -253 -75 -327 -97 -390 -261 -758 -675 -1514 -1250 -2730 -2460 -5200 -352 -719 -2071 -4153 -2515 -5025 -691 -1356 -1385 -2699 -1404 -2714 -8 -6 -98 -173 -201 -371 -715 -1369 -1676 -3180 -2560 -4820 -1116 -2071 -2040 -3754 -4215 -7675 -389 -701 -904 -1630 -1145 -2065 -595 -1075 -645 -1159 -1193 -2030 -294 -468 -338 -531 -476 -693 -108 -126 -138 -151 -267 -217 -87 -45 -91 -46 -110 -29 -10 9 -19 24 -19 32 0 8 128 260 284 561 1513 2912 2811 5571 4008 8211 517 1139 1063 2390 1418 3245 100 242 246 591 323 775 77 184 155 373 175 419 40 97 51 183 33 259 -7 28 -64 146 -128 264 -1965 3644 -3682 6975 -5465 10603 -160 325 -373 761 -473 970 -101 209 -258 533 -350 720 -858 1746 -1348 2780 -2115 4469 -300 661 -301 663 -336 785 -19 65 -134 543 -134 557 0 2 12 5 28 7 27 4 27 4 -3 6 l-31 1 32 133 c17 72 46 192 64 266 52 221 79 288 356 899 817 1800 1216 2642 2374 5002 155 316 410 838 568 1160 858 1754 2201 4411 3194 6320 549 1056 632 1210 648 1210 10 0 125 208 324 588 1764 3348 3198 5982 6409 11767 1351 2434 1324 2387 1460 2615 317 531 1010 1602 1091 1684 58 59 286 244 301 245 6 0 22 -11 38 -24z" fill="#ffffff"/>
</g>
</svg>