<?xml version="1.0" encoding="UTF-8" standalone="no"?>
<!-- Generator: Adobe Illustrator 26.0.0, SVG Export Plug-In . SVG Version: 6.00 Build 0)  -->

<svg
   version="1.1"
   id="Livello_1"
   x="0px"
   y="0px"
   viewBox="0 0 410.1155 384.94602"
   xml:space="preserve"
   width="369.104"
   height="346.45148"
   xmlns:xlink="http://www.w3.org/1999/xlink"
   xmlns="http://www.w3.org/2000/svg"
   xmlns:svg="http://www.w3.org/2000/svg"><defs
   id="defs13" />
<style
   type="text/css"
   id="style1">
	.st0{clip-path:url(#SVGID_00000070114878562103275910000012391370071412979881_);fill:#FFFFFF;}
	.st1{clip-path:url(#SVGID_00000070114878562103275910000012391370071412979881_);fill:#1334C9;}
	.st2{clip-path:url(#SVGID_00000070114878562103275910000012391370071412979881_);}
	.st3{clip-path:url(#SVGID_00000070114878562103275910000012391370071412979881_);fill:#48AD47;}
	.st4{clip-path:url(#SVGID_00000070114878562103275910000012391370071412979881_);fill:#8B8F91;}
</style>
<g
   id="g13"
   transform="translate(-308.42542,19.8334)"
   style="fill:#658cff;fill-opacity:1">
	<defs
   id="defs1"><rect
     id="SVGID_1_"
     x="15"
     y="8.6000004"
     width="1020"
     height="332.79999" /></defs>
	<clipPath
   id="SVGID_00000031200753187932598880000001150051991276243373_">
		<use
   xlink:href="#SVGID_1_"
   style="overflow:visible"
   id="use1" />
	</clipPath>
	
	
	
	
	
	
	
	
	
	
	
	
	
	<path
   style="fill:#658cff;fill-opacity:1"
   d="m 404,184.2 c -0.8,0.5 -1.6,0.9 -2.4,1.4 v -21.5 c 1.7,-1.7 3.2,-3.5 4.6,-5.3 7.1,-9.5 6.3,-24.3 -1.6,-33 -0.9,-1 -1.9,-1.9 -3,-2.8 V 8.6 h 70.1 c 31.9,0 57.8,25.4 57.8,56.7 0,26.7 -18.7,49 -44,55.1 l 14.1,20 c -0.3,0.3 -0.6,0.5 -0.8,0.8 -11.9,0.1 -21.3,3.5 -30.3,10.8 l -0.3,0.2 -0.2,0.2 c -1.2,1.1 -2.3,2.1 -3.5,3.1 L 453,137.7 V 91.8 h 9.5 c 15.1,0 27.3,-11.2 27.3,-25.1 0,-13.9 -11.4,-25.1 -26.5,-25.1 h -20.8 v 122 c -1.8,0.3 -3.5,0.6 -6.3,1.3 -9.6,2.2 -18.3,9 -25.3,14.4 -3.8,3 -4.9,3.7 -5.2,3.9 -0.6,0.3 -1.2,0.7 -1.7,1 m 151.2,-73.7 0.4,-0.2 0.5,-0.2 c 4.9,-2.1 10.6,-3.2 16.5,-3.2 4.3,0 8.6,0.7 12.3,1.9 V 41.6 h 25.6 c 11.2,0 20.3,10.3 20.3,21.5 0,11.2 -9.1,20.3 -20.3,20.3 h -13.3 v 31.1 c 1,0.7 2.1,1.4 3.4,2.3 l 0.4,0.3 1,0.8 h 19.7 c 13.6,0 23.9,11 23.9,24.6 -0.2,4.7 -1.3,8.9 -3.2,12.5 5.7,6.9 12.8,16.1 17,22.9 l 0.2,0.3 c 1.8,3.1 3.5,7.2 4.6,10.9 14.1,-10.1 23.2,-25.9 23.2,-43.6 0,-21.9 -7.7,-37.4 -33.5,-49.4 10.5,-9.8 16.9,-22.9 16.9,-37.3 0,-13.1 -5,-25.1 -13.8,-34.5 C 647.9,14.2 631.7,8.6 609.8,8.6 H 544 v 108.7 c 1.1,-0.7 2.3,-1.4 3.5,-2.2 2.4,-1.5 4.9,-3.2 7.7,-4.6 m -22,161.9 c 1.1,2.4 2.1,4.6 3.2,4.9 0.5,0.1 1,0.2 1.6,0.2 2.5,0 6.1,-1.4 8.6,-3.4 1.4,-1.2 1,-2 0.3,-3.1 -0.2,-0.3 -0.4,-0.7 -0.7,-1.2 -0.7,-1.3 -1.1,-2.7 -1.4,-3.9 -0.7,-2.5 -1.3,-4.6 -3.9,-4.2 -3.8,0.5 -7.4,0.8 -11.5,0.8 -0.1,0 -1.3,0 -1.7,0.9 -0.5,1 0.6,2 1.7,3 0.6,0.6 1.3,1.2 1.7,1.8 0.6,1.1 1.4,2.7 2.1,4.2 m -189,8.3 c -0.1,0 -0.3,0 -0.4,0.1 -2.2,0.9 -4.7,3.7 -4.8,5.4 -0.5,7.3 -0.8,8.1 -2.7,10.3 -0.6,0.6 -0.9,2.1 -0.3,2.7 0.6,0.6 7.7,2.8 8.5,2.8 h 0.2 c 0.6,-0.2 1.2,-1.8 2.6,-6.9 0.8,-2.7 1.7,-5.8 2.7,-8.6 0.1,-0.2 0.1,-0.4 -0.6,-1.4 -0.8,-1.2 -3.6,-4.4 -5.2,-4.4 m 346,-10.3 c -0.1,0.7 -0.6,1.2 -1.4,1.3 -0.9,0.2 -1.8,0.3 -2.8,0.3 -7.3,0 -15,-5.8 -18,-11.2 -4,-7.3 -7.3,-11.6 -13.2,-13.7 v 0 c 0.6,1.2 1.3,2.3 2.1,3.4 0.5,0.6 0.9,1.3 1.3,1.9 1.9,3.2 4.6,7.9 6,12.6 1.3,4.4 6,7.7 10.3,10.4 l 5.4,2.9 c 1.1,0.5 1.7,1.3 1.6,2 -0.1,0.6 -0.3,1.1 -1.3,1.4 l -1,0.1 c -0.4,0 -0.7,0 -1.1,0 -9.7,0 -17.5,-3.3 -23.8,-10.1 -1.9,-2.1 -3.8,-3.2 -5.7,-3.2 -4.3,3.8 -8.7,7.6 -14.6,8 -7.3,-1.2 -13.4,-0.8 -18,1.2 -0.8,0.3 -1.5,0.5 -2.3,0.8 -4.2,1.5 -8.5,3.1 -13.3,3.3 -2.6,0 -5.9,-1.3 -6.8,-3.9 -0.3,-1.1 -0.2,-2.1 -0.6,-3.4 -0.6,-2.3 -1.1,-4.7 0.2,-6.9 l 3.6,-5.4 c 0,-0.5 -0.4,-0.9 -0.9,-1 -0.5,-0.1 -1.1,0.2 -1.7,0.4 -0.6,0.2 -1.1,0.5 -1.6,0.5 -1.6,-0.1 -1.5,-1.6 -1.5,-1.6 0.2,-4.2 3.6,-7.5 6.8,-10.4 0.9,-0.8 1.8,-1.6 2.6,-2.5 0.9,-4.6 2.7,-8.4 5.6,-11.7 -0.1,-0.3 -0.3,-0.6 -0.7,-0.8 -1.1,0.2 -2.2,0.4 -3.3,0.6 -3.5,0.7 -7.1,1.3 -10.9,1.3 -5,2.6 -11.9,3.4 -13.8,2.1 0,0 -0.8,-0.6 -0.9,-1.3 -0.1,-0.7 0.1,-1.5 0.3,-1.9 4.9,-6.8 6.8,-15.4 5.4,-23.6 -0.1,-0.7 -0.4,-0.9 -0.8,-0.9 -0.6,0 -0.8,0.7 -0.9,1.1 -1.5,8.6 -3.9,14.9 -7.8,20.9 -1.3,2 -4.9,2.8 -8.4,3.5 -1.5,0.3 -2.8,0.5 -4.3,1.1 -0.8,0.3 -1.9,1.1 -1.9,2.3 -0.1,2.5 1.2,4.7 2.5,6.7 l 0.2,0.2 c 0.3,0.6 8.6,14.2 8.9,17 0.3,2.4 -0.8,9.8 -1.8,12.9 -0.3,1.1 0.2,1.2 0.3,1.2 0.2,0 0.5,-0.1 0.9,-0.4 1.4,-1 6.3,-8.5 6.7,-10.8 0.4,-2.3 -0.3,-3.8 -1,-5.3 l -9.8,-19.4 0.1,-0.2 c 0.5,-1 1.8,-1.6 3.6,-1.7 h 0.2 c 1.6,0 3,0.5 4.3,1.1 0.6,0.2 1.3,0.5 1.9,0.7 h 0.2 l 0.1,0.2 c 2.2,5.9 3.2,8.2 8.6,16.9 1.8,2.9 1.8,6.6 0,10.3 -2,4.2 -4.4,8.2 -7.1,12.1 -2.2,2.3 -5.2,2.5 -8.1,2.7 -0.6,0 -1.3,0.1 -1.9,0.2 h -2.8 c -8.5,4.5 -17.4,7.5 -26.6,10.4 -1.3,0.4 -2.6,0.6 -4,0.6 -3.2,0 -6.2,-1.1 -8.3,-2.9 -2.3,-1.8 -3.7,-4.3 -5,-6.7 -0.5,-1 -1.1,-2 -1.7,-2.9 -0.7,-0.9 -1.9,-1.3 -3.6,-1.3 -0.6,0 -1.2,0 -1.7,0.1 -0.5,0 -1,0.1 -1.5,0.1 -0.8,0 -1.9,-0.1 -2.4,-0.9 l -0.9,-1.5 c -2,-3.4 -4,-6.7 -6,-10.2 -0.5,-0.8 -0.5,-1.8 -0.2,-2.5 0.3,-0.7 0.9,-1.1 1.7,-1.3 3.8,-0.8 7.1,-1.5 10.6,-1.8 3.6,-0.3 6.3,0.6 8.4,3 1.6,1.8 2.8,3.9 4,5.9 2.2,3.7 1.8,4.8 5.3,8 0.1,0.1 2,1.5 4.2,1.7 3.3,0.2 8.9,-2 12.4,-3.7 2.2,-1.3 5.2,-3.5 5.2,-6.6 -0.4,-6.8 -5.5,-11.7 -9.7,-14.7 -6.6,-3.4 -11.9,-7.6 -15.3,-11.9 -1.6,-2.2 -2.4,-4.9 -3.1,-7.4 -0.2,-0.6 -0.3,-1.2 -0.5,-1.8 -0.1,-0.4 -0.5,-0.5 -0.8,-0.5 -0.3,0 -0.7,0.1 -0.9,0.3 -1.7,1.5 -0.7,4.6 0,6.7 0.1,0.3 0.2,0.6 0.3,0.9 l 0.1,0.3 c 0.5,1.6 0.8,2.8 -0.2,3.7 -1.5,1.2 -3.5,1.8 -6.3,1.8 -1.2,0 -2.4,-0.1 -3.6,-0.2 -0.7,-0.1 -1.3,-0.1 -1.9,-0.1 -3.4,-0.2 -6.7,-0.8 -9.8,-1.5 -3.6,-0.7 -7.4,-1.5 -11.3,-1.5 -0.9,0 -1.7,0 -2.5,0.1 -2,0.1 -4.3,0.5 -6.7,0.8 -3.1,0.5 -6.4,1 -9.3,1 -4.9,0 -8,-1.5 -9.4,-4.6 -3.1,-7.8 -1.5,-17.1 -0.2,-23.9 0,-0.7 -0.9,-1 -1.3,-1.1 -0.2,-0.1 -0.3,-0.1 -0.4,-0.1 -0.4,0 -0.8,0.2 -1,0.7 -0.9,3.3 -1.4,6.8 -1.9,10.3 -0.6,4.3 -1.3,8.8 -2.7,13 -2.1,6.4 -7.4,14.5 -14.6,18.1 -5.6,2.9 -12,4.4 -20.9,5 -12,0.2 -26.8,2 -35.5,14.4 -0.6,1.1 -0.7,1.4 -0.9,2.3 -0.1,0.4 -0.1,0.8 0.1,1 0.3,0.4 0.9,0.3 1.3,-0.1 8.2,-9.2 19.4,-13.9 33.3,-13.9 0.8,0 1.5,0 2.3,0 11.2,0 25.2,-1.5 33.8,-13.2 2.1,-2.4 5.3,-7.7 5.3,-7.7 l 0.2,-0.3 4.9,3.7 -0.1,0.2 c 0,0.1 -2.1,5.4 -3.4,7.8 -1.3,2.6 -4.9,9 -9,11.3 -1,0.5 -2.2,1.2 -3.5,1.9 -2.4,1.2 -5.3,2.8 -8.2,4.4 -2.4,1.4 -5.4,2.1 -8.5,2.1 -1.8,0 -3.6,-0.2 -5.4,-0.7 -3.3,-0.6 -7.5,-1.4 -11.4,-1.4 -3.2,0 -5.7,0.5 -7.9,1.5 -1.7,1.1 -3.4,2.6 -5,4.1 -1,1 -2.1,1.9 -3.1,2.8 -2.4,1.9 -7.4,5.2 -12.6,4.9 -1.1,-0.1 -2.2,-0.4 -3.2,-0.6 -1.2,-0.3 -2.4,-0.6 -3.5,-0.6 -1.3,0 -2.2,0.4 -3,1.3 -1.4,1.3 -2.4,3 -3.3,4.7 -1.5,2.5 -3,5.1 -5.8,6.4 -1.6,0.9 -3.4,1.3 -5.5,1.3 -2.2,0 -4.5,-0.5 -6.6,-1 -1.7,-0.4 -3.2,-0.7 -4.8,-0.8 h -0.4 l 0.1,-0.6 c 0.1,-0.7 0.3,-1.3 0.4,-2 0.9,-4.4 1.9,-8.9 4.8,-12.3 l 0.1,-0.1 h 0.1 c 1.9,-0.2 3.9,-0.6 5.5,-2 2,-1.8 3.6,-4.1 5.1,-6.6 l 0.1,-0.1 c 0.9,-0.6 1.9,-1.1 2.8,-1.7 3.8,-2.2 7.7,-4.5 10.1,-8.3 0.8,-1.8 1.7,-3.9 2.5,-5.9 1.3,-3.4 2.5,-6.3 3.5,-7.4 0.6,-0.6 1.2,-0.9 2.1,-1 0.4,0 1,-0.1 1.9,-0.1 1.7,-0.1 4.1,-0.2 6.3,-0.5 1.4,-0.2 8.8,-2.8 12.5,-6.2 1,-1 1.5,-2.7 1,-4.2 -0.1,-0.5 -0.5,-1.4 -1,-2.5 -1.1,-2.7 -2.8,-6.9 -3.5,-10.3 -0.3,-1.5 -0.5,-5.2 -0.6,-9 -0.1,-2.4 -0.2,-4.8 -0.4,-7 -0.1,-1.1 -0.5,-1.1 -0.7,-1.1 -0.1,0 -0.3,0 -0.5,0.1 -4.8,1.2 -9.8,2.5 -15.1,2.5 -1.7,0 -3.2,-0.1 -4.8,-0.4 -8.9,-1.1 -19.6,-7 -23.5,-17.4 -3,-7.9 -2.7,-20.1 3.8,-27.2 4.9,-6 10.8,-10.9 16.6,-15.7 1.1,-0.9 2.3,-1.9 3.4,-2.8 1.2,-1 1.7,-1.7 1.6,-2.7 -0.2,-1.6 -1.5,-2.9 -2.8,-3.3 -1.4,-0.4 -3,-0.4 -4.3,-0.4 -0.5,0 -0.9,0 -1.4,0 -0.5,0 -0.9,0 -1.4,0 -2.1,0 -4.3,-0.1 -6.5,-1 -0.3,-0.1 -0.6,-0.2 -0.9,-0.3 -6.7,-3.1 -12.8,-10.6 -13.7,-17.9 -0.2,-3.5 0.4,-6.6 2.2,-9.4 4.8,2.6 9,6.8 14.5,8.3 2.1,0.5 4.2,0.8 6.4,1.3 0.3,0.1 0.9,0.1 1.3,0.2 l 0.6,0.1 c 3.4,0.8 12.6,3.1 16.7,7.6 4.1,4.5 4.5,12.8 0.9,17.7 -3.1,4.2 -7.7,8.1 -12.5,12.1 -3,2.5 -6,5.1 -8.7,7.8 -5.7,5.7 -7.8,13 -5.8,20.2 2.1,6.4 8.5,11.2 15.5,11.7 0.2,0 0.5,0 0.7,0 9.4,0 16.7,-4.3 24.4,-8.8 0.7,-0.4 1.5,-0.9 2.1,-1.3 1.3,-0.8 4,-2.9 6.1,-4.5 6.2,-4.9 13.6,-10.6 20.5,-12.2 4.6,-1.1 5.4,-1.1 10.2,-1.6 3.4,-0.3 6.6,-0.7 9.5,-1.7 6.4,-2.2 12,-7 17.5,-12 7,-5.7 13.8,-8.1 23.3,-8.1 4.1,0 4.7,-0.5 9.7,-5.2 1.1,-1 2.4,-2.2 4,-3.7 5.4,-5 12.3,-7.1 19,-9.2 3.4,-1.1 6.9,-2.1 10.2,-3.6 4.2,-1.4 8.1,-3.9 11.8,-6.3 2.2,-1.4 4.5,-2.9 6.8,-4.1 3.4,-1.5 7.5,-2.3 11.7,-2.3 3.3,0 6.5,0.5 9.2,1.5 4.2,1.5 6,2.3 11.8,6.3 l 29.3,24.3 0.4,0.4 c 0.5,0.5 1.2,1.1 1.7,1.7 0.9,0.9 17.2,19.9 24,31 2.2,3.7 4,9.4 4.2,12.1 1.3,17.1 6.5,32.5 11.3,45.5 0.2,0.5 1.2,1.4 2.3,2.4 1.3,1.1 2.7,2.4 3.6,3.7 1.3,1.8 2.5,3.8 3.6,5.7 2.9,4.9 6,10 11.2,13 0,0 2.4,1.2 4.4,2.2 0.7,0.5 0.8,1 0.7,1.6 M 583.5,163 c -1.5,-3 -3,-4.9 -4.5,-5.6 -0.4,-0.2 -0.9,-0.3 -1.4,-0.3 -1,0 -2,0.4 -2.3,1 -1.3,2.1 -0.1,3.6 1.2,5.4 0.6,0.9 1.3,1.8 1.9,3 1.8,3.6 2.7,7.5 4.2,15.3 0.1,0.7 0.6,0.8 0.7,0.8 0.4,0 0.7,-0.4 0.9,-0.9 0.1,-0.1 3.1,-11 -0.7,-18.7 m 49.3,91.9 c -1.4,-0.7 -2.9,-0.2 -2.9,-0.2 -4.6,1.2 -6.9,6 -7.2,6.5 0,0 -0.7,1.3 -0.3,2 0.4,0.6 1.1,0.9 3.1,1 2,0.1 5.7,-0.4 6.7,-1.4 1,-0.9 1.3,-3.2 1.3,-3.2 0,-0.4 0.7,-4 -0.7,-4.7 m 13.8,-32.1 c -0.5,-2.3 -2.5,-6.1 -4.3,-8 -1.8,-1.9 -2.4,-2.9 -3,-3.9 -0.6,-1 -0.1,-0.7 -2.3,-3.4 -1.9,-2.3 -3.6,-2.1 -4.1,-2.1 0,0 -2,-0.1 -3.5,2.1 -0.6,0.8 -2,4.2 -2,4.2 -0.7,1.7 -1.3,2.2 -1.9,4.7 -0.6,2.4 -0.4,3.4 -0.1,4.7 0.2,1.3 0.9,1.4 1.4,1.1 0.5,-0.3 0.5,-0.6 2.1,-2.7 1.4,-1.8 3.2,-2.9 3.9,-2.9 2.8,-0.3 7.6,6 8.6,8.2 0.9,2 1.1,6.8 1.1,6.8 0,0.2 -0.1,2 1.4,2 1.3,0 1.8,-1 2,-1.4 0.2,-0.4 0.7,-1.3 1,-3.1 0.2,-2 0.3,-4 -0.3,-6.3 m -294.4,57.7 c 0.6,0.5 1.4,1.1 2.7,1.1 0.7,0 1.5,-0.2 2.2,-0.6 4.1,-2 8.3,-9.6 8.4,-10 0.4,-1.2 -1,-2.3 -2.7,-3.7 l -0.2,-0.2 c -0.8,-0.6 -2.2,-0.5 -3.1,0.1 -0.7,0.4 -1.3,0.9 -2,1.3 -2.1,1.4 -4.3,2.8 -6.6,4.8 -0.8,0.7 -1.3,2 -1.4,3 -0.1,0.8 0.1,1.5 0.4,1.9 0.3,0.2 1.9,2 2.3,2.3 m 47.7,60.6 h 2.4 v -6.5 h 6.4 v -2.1 h -6.4 v -4.7 h 6.6 v -2.2 h -9.1 v 15.5 z m 25.5,-0.3 c 1,-0.4 1.8,-1 2.6,-1.7 0.7,-0.7 1.3,-1.6 1.7,-2.6 0.4,-1 0.6,-2 0.6,-3.2 0,-1.1 -0.2,-2.2 -0.6,-3.2 -0.4,-1 -1,-1.8 -1.7,-2.5 -0.7,-0.7 -1.6,-1.3 -2.6,-1.7 -1,-0.4 -2.1,-0.6 -3.2,-0.6 -1.2,0 -2.3,0.2 -3.2,0.6 -1,0.4 -1.8,1 -2.6,1.7 -0.7,0.7 -1.3,1.6 -1.7,2.5 -0.4,1 -0.6,2 -0.6,3.2 0,1.1 0.2,2.2 0.6,3.2 0.4,1 1,1.8 1.7,2.6 0.7,0.7 1.6,1.3 2.6,1.7 1,0.4 2.1,0.6 3.2,0.6 1.1,0 2.2,-0.2 3.2,-0.6 m -5.5,-2.1 c -0.7,-0.3 -1.3,-0.7 -1.8,-1.2 -0.5,-0.5 -0.9,-1.1 -1.2,-1.8 -0.3,-0.7 -0.4,-1.5 -0.4,-2.3 0,-0.8 0.1,-1.6 0.4,-2.3 0.3,-0.7 0.7,-1.3 1.2,-1.8 0.5,-0.5 1.1,-0.9 1.8,-1.2 0.7,-0.3 1.4,-0.4 2.3,-0.4 0.8,0 1.5,0.1 2.2,0.4 0.7,0.3 1.3,0.7 1.8,1.2 0.5,0.5 0.9,1.1 1.2,1.8 0.3,0.7 0.4,1.5 0.4,2.3 0,0.8 -0.1,1.6 -0.4,2.3 -0.3,0.7 -0.7,1.3 -1.2,1.8 -0.5,0.5 -1.1,0.9 -1.8,1.2 -0.7,0.3 -1.4,0.4 -2.2,0.4 -0.9,0.1 -1.6,-0.1 -2.3,-0.4 m 16.7,2.4 H 439 V 335 h 2.1 l 3.9,6.1 h 2.8 l -4.1,-6.3 c 1,-0.3 1.7,-0.9 2.3,-1.7 0.5,-0.8 0.8,-1.7 0.8,-2.8 0,-1.5 -0.5,-2.6 -1.4,-3.4 -0.9,-0.8 -2.2,-1.3 -3.8,-1.3 h -5.1 v 15.5 z M 439,333 v -5.3 h 2.6 c 0.9,0 1.5,0.2 2,0.7 0.5,0.5 0.7,1.1 0.7,1.9 0,0.8 -0.2,1.5 -0.7,2 -0.5,0.5 -1.2,0.7 -2,0.7 H 439 Z m 27,-7.4 -4.5,12.4 -4.5,-12.4 h -3.3 v 15.5 h 2.3 v -11.9 l 4.4,11.9 h 2.1 l 4.4,-11.9 v 11.9 h 2.4 v -15.5 z m 19,15.4 c 0.7,-0.3 1.4,-0.7 1.9,-1.3 0.5,-0.5 0.9,-1.2 1.2,-2 0.3,-0.8 0.4,-1.7 0.4,-2.6 v -9.5 H 486 v 9.5 c 0,1.3 -0.3,2.3 -0.9,3 -0.6,0.7 -1.5,1.1 -2.6,1.1 -1.1,0 -2,-0.4 -2.6,-1.1 -0.6,-0.7 -0.9,-1.7 -0.9,-3 v -9.5 h -2.4 v 9.5 c 0,1 0.1,1.8 0.4,2.6 0.3,0.8 0.7,1.5 1.2,2 0.5,0.5 1.2,1 1.9,1.3 0.7,0.3 1.6,0.5 2.5,0.5 0.8,-0.1 1.6,-0.2 2.4,-0.5 m 10.6,0.1 h 8.5 v -2.2 H 498 v -13.3 h -2.4 z m 24.3,0 h 2.6 l -5.8,-15.5 h -2.6 l -5.9,15.5 h 2.6 l 1.3,-3.7 h 6.5 z m -4.5,-13 2.6,7.4 h -5.2 z m 32.9,12.7 c 1,-0.4 1.8,-1 2.6,-1.7 0.7,-0.7 1.3,-1.6 1.7,-2.6 0.4,-1 0.6,-2 0.6,-3.2 0,-1.1 -0.2,-2.2 -0.6,-3.2 -0.4,-1 -1,-1.8 -1.7,-2.5 -0.7,-0.7 -1.6,-1.3 -2.6,-1.7 -1,-0.4 -2.1,-0.6 -3.2,-0.6 -1.2,0 -2.3,0.2 -3.2,0.6 -1,0.4 -1.8,1 -2.6,1.7 -0.7,0.7 -1.3,1.6 -1.7,2.5 -0.4,1 -0.6,2 -0.6,3.2 0,1.1 0.2,2.2 0.6,3.2 0.4,1 1,1.8 1.7,2.6 0.7,0.7 1.6,1.3 2.6,1.7 1,0.4 2.1,0.6 3.2,0.6 1.1,0 2.2,-0.2 3.2,-0.6 m -5.5,-2.1 c -0.7,-0.3 -1.3,-0.7 -1.8,-1.2 -0.5,-0.5 -0.9,-1.1 -1.2,-1.8 -0.3,-0.7 -0.4,-1.5 -0.4,-2.3 0,-0.8 0.1,-1.6 0.4,-2.3 0.3,-0.7 0.7,-1.3 1.2,-1.8 0.5,-0.5 1.1,-0.9 1.8,-1.2 0.7,-0.3 1.4,-0.4 2.3,-0.4 0.8,0 1.5,0.1 2.2,0.4 0.7,0.3 1.3,0.7 1.8,1.2 0.5,0.5 0.9,1.1 1.2,1.8 0.3,0.7 0.4,1.5 0.4,2.3 0,0.8 -0.1,1.6 -0.4,2.3 -0.3,0.7 -0.7,1.3 -1.2,1.8 -0.5,0.5 -1.1,0.9 -1.8,1.2 -0.7,0.3 -1.4,0.4 -2.2,0.4 -0.8,0.1 -1.6,-0.1 -2.3,-0.4 M 569,325.6 v 11.5 l -6.9,-11.5 h -2.7 v 15.5 h 2.4 v -11.7 l 7,11.7 h 2.6 v -15.5 z m 9.7,15.5 h 9.4 V 339 h -7 v -4.9 h 6.5 V 332 h -6.5 v -4.3 h 6.7 v -2.1 h -9.1 z m 28.3,0 h 2.4 v -13.3 h 4.6 v -2.2 h -11.4 v 2.2 h 4.4 z m 13.1,0 h 9.4 V 339 h -7 v -4.9 H 629 V 332 h -6.5 v -4.3 h 6.7 v -2.1 h -9.1 z m 26,0 h 2.6 l -5.8,-15.5 h -2.6 l -5.9,15.5 h 2.6 l 1.3,-3.7 h 6.5 z m -4.6,-13 2.6,7.4 H 639 Z m 25.3,-2.5 -4.5,12.4 -4.5,-12.4 h -3.3 v 15.5 h 2.3 v -11.9 l 4.4,11.9 h 2.1 l 4.4,-11.9 v 11.9 h 2.4 v -15.5 z"
   clip-path="url(#SVGID_00000031200753187932598880000001150051991276243373_)"
   id="path13" />
</g>
</svg>
