<?xml version="1.0" encoding="UTF-8"?>
<svg version="1.1" xmlns="http://www.w3.org/2000/svg" width="3356" height="2543">
<path d="M0 0 C1.98 0 3.96 0 6 0 C6.19303711 0.67844971 6.38607422 1.35689941 6.58496094 2.0559082 C9.19533483 10.56654903 12.93066329 18.14358783 17.07867432 25.97418213 C19.11779511 29.82727146 21.12453755 33.69717446 23.1328125 37.56640625 C23.54316742 38.35589661 23.95352234 39.14538696 24.37631226 39.95880127 C28.42989036 47.78166468 32.30310738 55.68688345 36.125 63.625 C36.61205414 64.63577103 36.61205414 64.63577103 37.10894775 65.66696167 C38.74960257 69.0733302 40.38726652 72.48112432 42.0234375 75.88964844 C45.03398269 82.15676428 48.07479323 88.40921318 51.11196899 94.66345215 C56.40230457 105.55999753 61.67539238 116.46479636 66.9375 127.375 C72.78463272 139.49718595 78.65981323 151.60559383 84.54272461 163.71044922 C85.26546662 165.19758902 85.98820425 166.68473094 86.7109375 168.171875 C87.0687178 168.90806061 87.42649811 169.64424622 87.79512024 170.40274048 C91.53511577 178.09938649 95.26785157 185.79954667 99 193.5 C104.49444202 204.83603703 109.99492718 216.16912184 115.5 227.5 C121.00507288 238.83087828 126.50544455 250.16401788 132 261.5 C139.61086594 277.20185058 147.23370677 292.89787004 154.85888672 308.59277344 C158.05257981 315.1664508 161.24551499 321.74049629 164.43850708 328.31451416 C166.20897365 331.9596912 167.97948931 335.60484439 169.75 339.25 C170.45833357 340.70833322 171.1666669 342.16666655 171.875 343.625 C172.225625 344.346875 172.57625 345.06875 172.9375 345.8125 C244.12500055 492.37500113 244.12500055 492.37500113 245.18748474 494.56246948 C245.895868 496.020905 246.60425219 497.47934006 247.31263733 498.93777466 C249.08271457 502.58204086 250.8527755 506.22631498 252.62280273 509.87060547 C255.81930865 516.45181734 259.0159339 523.0329711 262.21316528 529.61383057 C269.81194696 545.25442364 277.40644888 560.89706993 284.99102783 576.54455566 C290.13516988 587.15697991 295.28437531 597.76693463 300.4375 608.375 C300.78956512 609.09975525 301.14163025 609.8245105 301.50436401 610.57122803 C304.00274036 615.71423412 306.50134403 620.85712976 309 626 C311.8543232 631.87492396 314.70854506 637.74989713 317.5625 643.625 C317.91464569 644.34991638 318.26679138 645.07483276 318.62960815 645.82171631 C324.08868908 657.06010838 329.54138528 668.30158429 334.99102783 679.54455566 C340.13516988 690.15697991 345.28437531 700.76693463 350.4375 711.375 C350.78956512 712.09975525 351.14163025 712.8245105 351.50436401 713.57122803 C354.00274036 718.71423412 356.50134403 723.85712976 359 729 C361.8543232 734.87492396 364.70854506 740.74989713 367.5625 746.625 C367.91464569 747.34991638 368.26679138 748.07483276 368.62960815 748.82171631 C374.08868908 760.06010838 379.54138528 771.30158429 384.99102783 782.54455566 C390.13516988 793.15697991 395.28437531 803.76693463 400.4375 814.375 C400.78956512 815.09975525 401.14163025 815.8245105 401.50436401 816.57122803 C404.00274036 821.71423412 406.50134403 826.85712976 409 832 C411.8543232 837.87492396 414.70854506 843.74989713 417.5625 849.625 C417.91464569 850.34991638 418.26679138 851.07483276 418.62960815 851.82171631 C424.08836108 863.05943315 429.54084281 874.30017908 434.99002075 885.5425415 C440.15465564 896.19763367 445.32556618 906.84966329 450.5 917.5 C456.33562243 929.51123561 462.16531277 941.52532709 467.98974609 953.54199219 C473.1544742 964.19726664 478.32547673 974.84947918 483.5 985.5 C489.33562243 997.51123561 495.16531277 1009.52532709 500.98974609 1021.54199219 C506.15447422 1032.19726667 511.32550707 1042.84946442 516.5 1053.5 C522.02530919 1064.87283237 527.54689073 1076.24745997 533.0625 1087.625 C533.39105988 1088.30274475 533.71961975 1088.9804895 534.05813599 1089.67877197 C536.70218935 1095.13298875 539.34591445 1100.58736463 541.98962402 1106.04174805 C544.3054274 1110.81957398 546.62136412 1115.59733525 548.9375 1120.375 C549.26597931 1121.05258362 549.59445862 1121.73016724 549.93289185 1122.42828369 C555.11691471 1133.12129281 560.30710248 1143.81129827 565.5 1154.5 C573.01344856 1169.96516378 580.51673389 1185.43523627 588.01611328 1200.90722656 C591.00988151 1207.08356752 594.00447234 1213.25950963 596.99899292 1219.43548584 C598.66602819 1222.87364127 600.33301149 1226.3118219 602 1229.75 C602.66666642 1231.12500012 603.33333308 1232.50000012 604 1233.875 C640.00000012 1308.12500024 640.00000012 1308.12500024 640.99996948 1310.18743896 C641.66673588 1311.56264338 642.33350427 1312.93784683 643.00027466 1314.31304932 C644.66543184 1317.74741378 646.33055449 1321.18179498 647.99560547 1324.61621094 C651.01358719 1330.84116158 654.03183166 1337.06598417 657.05134583 1343.29019165 C663.69222772 1356.97928487 670.32782106 1370.67080607 676.9375 1384.375 C683.14287831 1397.23989522 689.38075351 1410.0888557 695.6239624 1422.9354248 C695.98137512 1423.67087524 696.33878784 1424.40632568 696.70703125 1425.1640625 C697.0646051 1425.89983521 697.42217896 1426.63560791 697.79058838 1427.39367676 C703.20715482 1438.54054707 708.61123501 1449.69347471 714.01663208 1460.84576416 C716.36560843 1465.69190722 718.71578024 1470.53746942 721.06640625 1475.3828125 C727.36863295 1488.37451343 733.66461532 1501.36909926 739.9375 1514.375 C745.06644036 1525.00824056 750.21508714 1535.63175844 755.375 1546.25 C755.73146606 1546.98355713 756.08793213 1547.71711426 756.4552002 1548.47290039 C757.8972887 1551.44045958 759.33939456 1554.40801034 760.78152466 1557.37554932 C764.58705742 1565.20698217 768.38844485 1573.04042297 772.1875 1580.875 C772.51910126 1581.55882751 772.85070251 1582.24265503 773.19235229 1582.94720459 C778.35482115 1593.59455063 783.50091626 1604.24971462 788.64135742 1614.90771484 C793.60660897 1625.19703359 798.59827182 1635.47343212 803.59298706 1645.74847412 C808.41000254 1655.65861826 813.21417009 1665.57475505 818 1675.5 C824.18391464 1688.32365483 830.40121676 1701.13091935 836.62409973 1713.93569946 C836.98146713 1714.67105927 837.33883453 1715.40641907 837.70703125 1716.1640625 C838.06460007 1716.89982513 838.42216888 1717.63558777 838.79057312 1718.39364624 C842.55242039 1726.13523076 846.3080534 1733.87982425 850.0625 1741.625 C850.39054626 1742.30171753 850.71859253 1742.97843506 851.05657959 1743.67565918 C852.70983183 1747.08614561 854.36299686 1750.4966743 856.01611328 1753.90722656 C858.00916113 1758.01901548 860.00257335 1762.13062767 861.99609375 1766.2421875 C862.49139587 1767.26372925 862.49139587 1767.26372925 862.9967041 1768.3059082 C863.99779675 1770.37060837 864.99889688 1772.43530491 866 1774.5 C873.33520077 1789.62826473 873.33520077 1789.62826473 876.97434998 1797.13619995 C886.25978031 1816.29296981 895.55593536 1835.44450641 904.85888672 1854.59277344 C908.76030483 1862.62318313 912.66066428 1870.65410708 916.56121826 1878.68493652 C917.62283683 1880.87069005 918.68446247 1883.05644015 919.74609375 1885.2421875 C920.09651733 1885.96365967 920.44694092 1886.68513184 920.8079834 1887.4284668 C923.65763342 1893.29537405 926.50769513 1899.16208124 929.35812378 1905.02861023 C931.12626975 1908.66785477 932.89384372 1912.30737497 934.66015625 1915.94750977 C937.9124423 1922.64924039 941.16837537 1929.34909041 944.43992615 1936.04144287 C945.93715194 1939.10523162 947.43150944 1942.17041463 948.92550659 1945.23577881 C949.6356518 1946.69092199 950.34715568 1948.14540298 951.06008911 1949.59918213 C952.04352217 1951.60481688 953.02226053 1953.6126787 954 1955.62109375 C954.556875 1956.7598999 955.11375 1957.89870605 955.6875 1959.07202148 C959.21106143 1966.93252598 959.37012801 1976.18031255 957.02709961 1984.42236328 C956.57343018 1985.58493652 956.11976074 1986.74750977 955.65234375 1987.9453125 C955.39174164 1988.61505096 955.13113953 1989.28478943 954.86264038 1989.974823 C951.03827494 1999.64574816 946.80980005 2009.15626158 942.63504028 2018.67935181 C940.03990688 2024.60099298 937.4593323 2030.52896953 934.87890625 2036.45703125 C934.3665593 2037.63361801 933.85421234 2038.81020477 933.32633972 2040.02244568 C929.1659956 2049.58927818 925.08732211 2059.18800128 921.0625 2068.8125 C914.604312 2084.24441851 908.03599386 2099.62756849 901.4375 2115 C893.4128701 2133.69790387 885.40647106 2152.40330026 877.4375 2171.125 C876.72954788 2172.78813232 876.72954788 2172.78813232 876.0072937 2174.48486328 C873.62410855 2180.08382151 871.24138645 2185.68297664 868.85888672 2191.28222656 C864.55476785 2201.39695188 860.24646294 2211.5098943 855.93850708 2221.62298584 C853.54216977 2227.24858555 851.14609822 2232.87429845 848.75 2238.5 C847.79166794 2240.75000054 846.83333461 2243.00000054 845.875 2245.25 C845.1634375 2246.920625 845.1634375 2246.920625 844.4375 2248.625 C820 2306 795.5625 2363.375 771.125 2420.75 C770.65070557 2421.86356369 770.17641113 2422.97712738 769.68774414 2424.12443542 C768.7286053 2426.37632087 767.76945815 2428.62820279 766.81030273 2430.88008118 C764.42672594 2436.47620498 762.04328953 2442.07238848 759.66015625 2447.66870117 C755.20185492 2458.1377207 750.74218617 2468.60615243 746.27770996 2479.07254028 C744.18721411 2483.97347387 742.09764829 2488.87480388 740.00805664 2493.77612305 C739.01934337 2496.09464527 738.03026137 2498.41301029 737.04077148 2500.73120117 C736.10819909 2502.91608966 735.17617672 2505.10121302 734.24475098 2507.28659058 C733.36616084 2509.34715087 732.48592451 2511.4070102 731.60388184 2513.46609497 C729.64873668 2518.04584819 727.73433117 2522.63203322 725.93359375 2527.27490234 C725.46197815 2528.47677437 725.46197815 2528.47677437 724.98083496 2529.70292664 C724.40865404 2531.17196984 723.84914013 2532.64604031 723.30529785 2534.12580872 C722.55273438 2536.05151367 722.55273438 2536.05151367 721 2539 C718.80664062 2539.9387207 718.80664062 2539.9387207 717 2540 C708.80588746 2523.22195639 700.67780533 2506.424269 692.86645508 2489.46386719 C688.84550429 2480.75849946 684.69643996 2472.12156293 680.5 2463.5 C675.15897085 2452.52643948 669.95352345 2441.50166851 664.84375 2430.41796875 C660.98476782 2422.06784839 657.01857994 2413.77398634 653 2405.5 C648.42681725 2396.0841237 643.94517179 2386.63153073 639.5625 2377.125 C634.6780217 2366.53201162 629.64702341 2356.02027452 624.54226685 2345.5322876 C619.5460131 2335.26165228 614.69447254 2324.93184805 609.9140625 2314.55859375 C605.87588979 2305.82235181 601.71180187 2297.15329936 597.5 2288.5 C592.18205649 2277.57409262 587.00007014 2266.59497979 581.9140625 2255.55859375 C577.87588938 2246.82235092 573.71177621 2238.15331251 569.5 2229.5 C564.1590035 2218.5264229 558.95352395 2207.50166959 553.84375 2196.41796875 C549.98476782 2188.06784839 546.01857994 2179.77398634 542 2171.5 C537.42681725 2162.0841237 532.94517179 2152.63153073 528.5625 2143.125 C523.6780217 2132.53201162 518.64702341 2122.02027452 513.54226685 2111.5322876 C508.5460131 2101.26165228 503.69447254 2090.93184805 498.9140625 2080.55859375 C494.87588979 2071.82235181 490.71180187 2063.15329936 486.5 2054.5 C481.18205649 2043.57409262 476.00007014 2032.59497979 470.9140625 2021.55859375 C466.87588938 2012.82235092 462.71177621 2004.15331251 458.5 1995.5 C453.1590035 1984.5264229 447.95352395 1973.50166959 442.84375 1962.41796875 C438.98476782 1954.06784839 435.01857994 1945.77398634 431 1937.5 C426.42681725 1928.0841237 421.94517179 1918.63153073 417.5625 1909.125 C412.6780217 1898.53201162 407.64702341 1888.02027452 402.54226685 1877.5322876 C397.5460131 1867.26165228 392.69447254 1856.93184805 387.9140625 1846.55859375 C383.87588979 1837.82235181 379.71180187 1829.15329936 375.5 1820.5 C370.18205649 1809.57409262 365.00007014 1798.59497979 359.9140625 1787.55859375 C355.87588979 1778.82235181 351.71180187 1770.15329936 347.5 1761.5 C342.18205649 1750.57409262 337.00007014 1739.59497979 331.9140625 1728.55859375 C327.87588938 1719.82235092 323.71177621 1711.15331251 319.5 1702.5 C314.1590035 1691.5264229 308.95352395 1680.50166959 303.84375 1669.41796875 C299.98476782 1661.06784839 296.01857994 1652.77398634 292 1644.5 C287.42681725 1635.0841237 282.94517179 1625.63153073 278.5625 1616.125 C273.6780217 1605.53201162 268.64702341 1595.02027452 263.54226685 1584.5322876 C258.5460131 1574.26165228 253.69447254 1563.93184805 248.9140625 1553.55859375 C244.87588979 1544.82235181 240.71180187 1536.15329936 236.5 1527.5 C231.18205649 1516.57409262 226.00007014 1505.59497979 220.9140625 1494.55859375 C216.87588938 1485.82235092 212.71177621 1477.15331251 208.5 1468.5 C203.1590035 1457.5264229 197.95352395 1446.50166959 192.84375 1435.41796875 C188.98476782 1427.06784839 185.01857994 1418.77398634 181 1410.5 C176.42681725 1401.0841237 171.94517179 1391.63153073 167.5625 1382.125 C162.6780217 1371.53201162 157.64702341 1361.02027452 152.54226685 1350.5322876 C147.5460131 1340.26165228 142.69447254 1329.93184805 137.9140625 1319.55859375 C133.87588979 1310.82235181 129.71180187 1302.15329936 125.5 1293.5 C120.18205649 1282.57409262 115.00007014 1271.59497979 109.9140625 1260.55859375 C105.87588938 1251.82235092 101.71177621 1243.15331251 97.5 1234.5 C92.1590035 1223.5264229 86.95352395 1212.50166959 81.84375 1201.41796875 C77.98476782 1193.06784839 74.01857994 1184.77398634 70 1176.5 C65.42681725 1167.0841237 60.94517179 1157.63153073 56.5625 1148.125 C51.6780217 1137.53201162 46.64702341 1127.02027452 41.54226685 1116.5322876 C36.54816537 1106.26607663 31.69772204 1095.94116756 26.9206543 1085.57177734 C22.51672516 1076.04194139 17.95099126 1066.59668012 13.35494995 1057.15866089 C7.69666044 1045.53118683 2.2585846 1033.81434966 -3 1022 C-7.89487459 1031.63978464 -12.61041475 1041.33056222 -17.04101562 1051.19238281 C-18.6441989 1054.76025148 -20.25852334 1058.32308556 -21.87109375 1061.88671875 C-22.20720673 1062.63021576 -22.5433197 1063.37371277 -22.88961792 1064.13973999 C-26.72202653 1072.61049974 -30.6114389 1081.05491294 -34.5 1089.5 C-39.863305 1101.15318769 -45.2005985 1112.8176133 -50.5 1124.5 C-56.15616265 1136.96885696 -61.85944079 1149.41546646 -67.58300781 1161.85351562 C-72.58396392 1172.72280234 -77.55724313 1183.60412933 -82.5 1194.5 C-87.78060356 1206.13976264 -93.09625461 1217.76293916 -98.4375 1229.375 C-103.99260582 1241.45222029 -109.5378965 1253.53379258 -115.0625 1265.625 C-115.3906369 1266.3431488 -115.7187738 1267.06129761 -116.05685425 1267.8012085 C-117.71015827 1271.41978177 -119.36319613 1275.03847655 -121.01611328 1278.65722656 C-124.00889009 1285.20900611 -127.00404263 1291.75969964 -129.99899292 1298.31048584 C-131.66609039 1301.95694708 -133.33303767 1305.60347698 -135 1309.25 C-135.66666595 1310.70833366 -136.33333261 1312.166667 -137 1313.625 C-137.33 1314.346875 -137.66 1315.06875 -138 1315.8125 C-204.99999996 1462.37499991 -204.99999996 1462.37499991 -206.00001526 1464.56253052 C-206.66663395 1466.02076081 -207.33324975 1467.47899241 -207.99986267 1468.93722534 C-209.66723974 1472.58464607 -211.33466703 1476.23204382 -213.00219727 1479.87939453 C-215.99376738 1486.42291547 -218.9850004 1492.96658925 -221.97431946 1499.51113892 C-223.6284612 1503.13254099 -225.28290236 1506.7538062 -226.9375 1510.375 C-227.26555634 1511.09298767 -227.59361267 1511.81097534 -227.93161011 1512.55072021 C-233.4826879 1524.69800869 -239.05876052 1536.83370732 -244.63986206 1548.96722412 C-249.93042162 1560.4713406 -255.1862559 1571.99073239 -260.41726685 1583.52203369 C-265.76852672 1595.31645144 -271.16885156 1607.08785596 -276.58300781 1618.85351562 C-281.58396392 1629.72280234 -286.55724313 1640.60412933 -291.5 1651.5 C-296.78060356 1663.13976264 -302.09625461 1674.76293916 -307.4375 1686.375 C-312.99260582 1698.45222029 -318.5378965 1710.53379258 -324.0625 1722.625 C-324.3906369 1723.3431488 -324.7187738 1724.06129761 -325.05685425 1724.8012085 C-326.71015827 1728.41978177 -328.36319613 1732.03847655 -330.01611328 1735.65722656 C-333.00889009 1742.20900611 -336.00404263 1748.75969964 -338.99899292 1755.31048584 C-340.66609039 1758.95694708 -342.33303767 1762.60347698 -344 1766.25 C-344.66666595 1767.70833366 -345.33333261 1769.166667 -346 1770.625 C-346.33 1771.346875 -346.66 1772.06875 -347 1772.8125 C-429.99999999 1954.37499998 -429.99999999 1954.37499998 -431.00001526 1956.56253052 C-431.66663395 1958.02076081 -432.33324975 1959.47899241 -432.99986267 1960.93722534 C-434.66723974 1964.58464607 -436.33466703 1968.23204382 -438.00219727 1971.87939453 C-440.99376738 1978.42291547 -443.9850004 1984.96658925 -446.97431946 1991.51113892 C-448.6284612 1995.13254099 -450.28290236 1998.7538062 -451.9375 2002.375 C-452.26555634 2003.09298767 -452.59361267 2003.81097534 -452.93161011 2004.55072021 C-458.4826879 2016.69800869 -464.05876052 2028.83370732 -469.63986206 2040.96722412 C-474.62117585 2051.79889768 -479.57433612 2062.64291356 -484.5 2073.5 C-489.78072535 2085.13970848 -495.09634412 2096.76289672 -500.4375 2108.375 C-506.01171037 2120.49466311 -511.5788208 2132.61747906 -517.125 2144.75 C-517.45508057 2145.47203613 -517.78516113 2146.19407227 -518.12524414 2146.93798828 C-523.22125267 2158.08761105 -528.29421923 2169.24760223 -533.36141968 2180.41033936 C-539.0672123 2192.97672877 -544.82417244 2205.51928468 -550.59130859 2218.05761719 C-555.42815728 2228.574104 -560.25190443 2239.09647811 -565.0625 2249.625 C-565.3906369 2250.3431488 -565.7187738 2251.06129761 -566.05685425 2251.8012085 C-567.71015827 2255.41978177 -569.36319613 2259.03847655 -571.01611328 2262.65722656 C-574.00889009 2269.20900611 -577.00404263 2275.75969964 -579.99899292 2282.31048584 C-581.66609039 2285.95694708 -583.33303767 2289.60347698 -585 2293.25 C-585.66666595 2294.70833366 -586.33333261 2296.166667 -587 2297.625 C-587.33 2298.346875 -587.66 2299.06875 -588 2299.8125 C-639.00000018 2411.37500039 -639.00000018 2411.37500039 -640.00001526 2413.56253052 C-640.66663395 2415.02076081 -641.33324975 2416.47899241 -641.99986267 2417.93722534 C-643.66723974 2421.58464607 -645.33466703 2425.23204382 -647.00219727 2428.87939453 C-649.99375128 2435.42288025 -652.98496319 2441.96652109 -655.97427368 2448.5110321 C-669.91768411 2479.03734541 -683.91936231 2509.53672426 -698 2540 C-698.99 2540 -699.98 2540 -701 2540 C-709.2400019 2523.12799456 -717.41403199 2506.23569379 -725.27416992 2489.18261719 C-728.93719849 2481.24916578 -732.69095724 2473.36430825 -736.5 2465.5 C-741.4838494 2455.20897594 -746.33195423 2444.86156067 -751.125 2434.48046875 C-754.8412096 2426.4495254 -758.64319353 2418.46428799 -762.5 2410.5 C-766.7889715 2401.64017377 -770.99858244 2392.74918587 -775.125 2383.8125 C-780.42482555 2372.33878536 -785.81954101 2360.91240655 -791.25 2349.5 C-791.85678589 2348.22468918 -791.85678589 2348.22468918 -792.47583008 2346.9236145 C-793.08430786 2345.64476883 -793.08430786 2345.64476883 -793.70507812 2344.34008789 C-794.52475156 2342.61735596 -795.34441302 2340.89461833 -796.1640625 2339.171875 C-796.56985535 2338.31903427 -796.97564819 2337.46619354 -797.39373779 2336.58750916 C-801.48668387 2327.98248762 -805.55856175 2319.3675736 -809.625 2310.75 C-809.97171753 2310.01531494 -810.31843506 2309.28062988 -810.67565918 2308.52368164 C-812.41979172 2304.82776725 -814.16360024 2301.13170011 -815.90722656 2297.43554688 C-819.0816164 2290.70689397 -822.25910763 2283.97970562 -825.43630981 2277.25238037 C-826.49730037 2275.0057165 -827.55812512 2272.75897441 -828.61889648 2270.51220703 C-831.83240706 2263.70602043 -835.04670689 2256.90021118 -838.26448059 2250.09603882 C-845.80156715 2234.15830379 -853.31732084 2218.21143417 -860.76025391 2202.22949219 C-865.16874233 2192.7658844 -869.61155031 2183.31870122 -874.0625 2173.875 C-878.90608783 2163.59752602 -883.72542212 2153.30976058 -888.5 2143 C-894.92015102 2129.13948774 -901.42324668 2115.31869379 -907.93659973 2101.50180054 C-910.2633841 2096.56537282 -912.58605345 2091.62702715 -914.90625 2086.6875 C-921.69429204 2072.23848215 -928.50321026 2057.79945068 -935.34628296 2043.37640381 C-936.15421255 2041.67320965 -936.96169064 2039.96980124 -937.76870728 2038.26617432 C-941.93156591 2029.47988275 -946.12258398 2020.71078845 -950.43359375 2011.99609375 C-951.1289211 2010.58427591 -951.82415453 2009.1724118 -952.51928711 2007.76049805 C-953.78973162 2005.18102644 -955.07467337 2002.60959531 -956.36938477 2000.04223633 C-963.87069169 1984.83676963 -965.98381327 1972.26298994 -961 1956 C-959.40931672 1952.03360708 -957.55584992 1948.22939361 -955.64086914 1944.41064453 C-955.11383172 1943.33687624 -954.5867943 1942.26310795 -954.04378605 1941.15680122 C-952.37465753 1937.76504074 -950.68868237 1934.38206114 -949 1931 C-947.93357035 1928.84849514 -946.86755568 1926.69678453 -945.80197144 1924.54486084 C-943.05245207 1919.00530079 -940.28507215 1913.47485952 -937.5112896 1907.9474144 C-935.68642054 1904.31076922 -933.86422644 1900.67279432 -932.04273987 1897.03445435 C-928.17676079 1889.31341568 -924.30733871 1881.59410473 -920.4375 1873.875 C-916.2504943 1865.52323285 -912.06417745 1857.1711239 -907.88180786 1848.81703389 C-905.79984969 1844.6587539 -903.71475736 1840.50205525 -901.62901306 1836.34567261 C-895.92144276 1824.95603817 -890.30468205 1813.53146973 -884.83351803 1802.0263195 C-881.20792539 1794.40792519 -877.48320607 1786.84430583 -873.69132996 1779.30749512 C-872.6015524 1777.14127406 -871.51468093 1774.97361282 -870.42834473 1772.80566406 C-867.73480258 1767.43161313 -865.03677492 1762.05981783 -862.33880615 1756.68798828 C-859.67141565 1751.37651307 -857.00596754 1746.06407006 -854.34375 1740.75 C-853.97442352 1740.01286774 -853.60509705 1739.27573547 -853.22457886 1738.51626587 C-848.35825163 1728.79661688 -843.58455214 1719.04007233 -838.92956543 1709.21704102 C-832.93930355 1696.60506352 -826.60864479 1684.1605595 -820.33398438 1671.68847656 C-814.14627962 1659.38214248 -808.03406514 1647.0509164 -802.12512207 1634.6081543 C-796.24311556 1622.25556879 -790.05665273 1610.05465409 -783.90673828 1597.83398438 C-778.34100208 1586.76744842 -772.81493739 1575.68954432 -767.5 1564.5 C-761.17133311 1551.17624969 -754.53713673 1538.00943749 -747.90673828 1524.83398438 C-741.85798089 1512.80704153 -735.89315485 1500.75123768 -730.11657715 1488.59106445 C-724.41991568 1476.62986919 -718.43622321 1464.81261296 -712.47949219 1452.97949219 C-706.55824252 1441.20934252 -700.72944802 1429.40615006 -695.07397461 1417.50585938 C-690.64166423 1408.20015726 -686.03397774 1398.98615442 -681.39916992 1389.7800293 C-672.28996782 1371.71821361 -672.28996782 1371.71821361 -663.5 1353.5 C-657.7277555 1341.23640984 -651.59213941 1329.15258678 -645.51422119 1317.03869629 C-639.97275298 1305.99062196 -634.46651699 1294.93597793 -629.19921875 1283.75390625 C-624.19478409 1273.19249684 -618.90152425 1262.77321164 -613.65917969 1252.32861328 C-608.38888217 1241.8247518 -603.17596582 1231.30413657 -598.16015625 1220.67578125 C-593.52953658 1210.91277197 -588.65239162 1201.27347782 -583.80368042 1191.61761475 C-578.82808909 1181.70526498 -573.93060361 1171.76636343 -569.19140625 1161.73828125 C-564.729741 1152.34174383 -560.04539764 1143.05843129 -555.37670898 1133.76367188 C-550.53640805 1124.1232736 -545.78447041 1114.45115657 -541.171875 1104.69921875 C-536.89787008 1095.70198917 -532.42125778 1086.80912192 -527.94946289 1077.90917969 C-523.24448692 1068.54099114 -518.63796123 1059.13585275 -514.15234375 1049.66015625 C-510.06597577 1041.06175696 -505.79631663 1032.55810071 -501.52120972 1024.05267334 C-497.42931088 1015.90782782 -493.40166966 1007.73816394 -489.5 999.5 C-484.97626212 989.94837273 -480.26749751 980.49551526 -475.52148438 971.05322266 C-471.42949408 962.90819387 -467.40175733 954.73834906 -463.5 946.5 C-459.28723985 937.60498535 -454.91979455 928.79328688 -450.5 920 C-446.10112215 911.24829294 -441.75369116 902.47873208 -437.5625 893.625 C-433.17120167 884.35004565 -428.60698353 875.16898823 -424 866 C-419.41392481 856.87259311 -414.8696429 847.73371022 -410.5 838.5 C-406.13035699 829.26628953 -401.58606582 820.12741162 -397 811 C-392.43484219 801.91416955 -387.91047264 792.81747302 -383.5625 783.625 C-379.01481076 774.0118846 -374.27301856 764.50248815 -369.5 755 C-364.81060154 745.66387785 -360.14803493 736.32335353 -355.6875 726.875 C-350.62845968 716.16456337 -345.31322851 705.5857853 -340 695 C-332.15174121 679.37594191 -332.15174121 679.37594191 -324.5625 663.625 C-319.39261444 652.65806243 -313.93760127 641.83577923 -308.5 631 C-300.39602642 614.8787129 -300.39602642 614.8787129 -292.5625 598.625 C-286.36316642 585.46174836 -279.77110211 572.48969445 -273.22875977 559.49462891 C-268.58004276 550.24748106 -264.0050857 540.97312304 -259.5625 531.625 C-253.39324582 518.64635866 -246.94062865 505.81462069 -240.47949219 492.97949219 C-235.05558764 482.19795588 -229.67967262 471.40133904 -224.5 460.5 C-218.35283218 447.5624332 -211.9196848 434.77301548 -205.47949219 421.97949219 C-199.56963387 410.23198603 -193.75215085 398.45158604 -188.10803223 386.57397461 C-182.59677851 375.00414541 -176.8158382 363.57054143 -171.05224609 352.125 C-165.28123069 340.65698154 -159.61105393 329.15195913 -154.0994873 317.55688477 C-149.65782894 308.23412188 -145.04216234 299.00240681 -140.39862061 289.77893066 C-133.8796638 276.82636233 -127.37875401 263.87258743 -121.19921875 250.75390625 C-116.19639123 240.19588855 -110.90493689 229.77989826 -105.66421509 219.33868408 C-100.27450097 208.59699043 -94.94527462 197.83809647 -89.80859375 186.97265625 C-86.00632339 178.94962664 -82.03844445 171.01291219 -78.02758789 163.09228516 C-74.02874415 155.16245209 -70.19662973 147.15856849 -66.37507629 139.14212036 C-61.6978615 129.34198371 -56.92802423 119.58837775 -52.14303589 109.84051514 C-45.36833364 96.03770738 -38.60239567 82.23121178 -31.9375 68.375 C-26.25102272 56.56098409 -20.51848946 44.7696575 -14.76809692 32.9866333 C-13.76137483 30.92316163 -12.75540547 28.85932253 -11.75021362 26.79510498 C-10.3408237 23.90141599 -8.92860841 21.00912315 -7.515625 18.1171875 C-6.87600578 16.80216248 -6.87600578 16.80216248 -6.22346497 15.46057129 C-5.82777817 14.65228882 -5.43209137 13.84400635 -5.02441406 13.01123047 C-4.68025452 12.30594208 -4.33609497 11.60065369 -3.98150635 10.87399292 C-3 9 -3 9 -1 6 C-0.60986284 4.0103005 -0.26797351 2.00980131 0 0 Z " fill="#ffffff" transform="translate(1683,0)"/>
<path d="M0 0 C0.98786818 -0.00061931 1.97573635 -0.00123863 2.99353993 -0.00187671 C6.3179626 -0.00149408 9.64216646 0.01327984 12.96655464 0.02793312 C15.36824097 0.03119051 17.76992864 0.03356463 20.17161667 0.03512919 C25.40056017 0.04056559 30.62945143 0.0522618 35.85836792 0.06944275 C43.63357356 0.0949564 51.40877004 0.10894479 59.18400734 0.12056254 C72.26310488 0.1404322 85.34216589 0.16966237 98.42123222 0.2042141 C111.37249127 0.23839764 124.32374896 0.2684289 137.27503014 0.29290581 C138.08008518 0.29442963 138.88514022 0.29595346 139.71459087 0.29752346 C143.8030031 0.30524047 147.89141547 0.31288321 151.9798279 0.32049735 C180.94345086 0.374572 209.90704666 0.43796983 238.87063789 0.50684547 C267.00962657 0.57373889 295.14861946 0.63641239 323.28763008 0.69336891 C324.58851607 0.69600457 324.58851607 0.69600457 325.91568259 0.69869348 C334.62498007 0.71633431 343.33427772 0.7338893 352.0435755 0.7513814 C369.78566413 0.78701727 387.52775157 0.82322607 405.26983833 0.85978127 C406.08560366 0.86146133 406.90136898 0.8631414 407.74185447 0.86487238 C462.22393106 0.97714391 516.70597828 1.10281288 571.18802071 1.23047829 C570.87171161 2.6791079 570.55387942 4.12740501 570.23539829 5.57555866 C569.97015249 6.78539198 569.97015249 6.78539198 569.69954818 8.01966637 C569.1725132 10.29750141 568.5231626 12.46082787 567.70193672 14.64966774 C567.42227562 15.4042527 567.14261452 16.15883766 566.85447884 16.93628883 C566.55333672 17.73075417 566.2521946 18.5252195 565.94192696 19.34375954 C565.61955559 20.20936501 565.29718422 21.07497047 564.96504402 21.96680641 C564.26608199 23.8418335 563.56447969 25.71587806 562.86050606 27.58902931 C561.32555453 31.67391969 559.80390423 35.76372567 558.28155708 39.8533268 C557.47542545 42.01884762 556.66867283 44.18413736 555.86133003 46.34920692 C551.89524955 56.99211849 547.99700278 67.6593597 544.10852242 78.33082008 C537.09290377 97.58348482 530.03116318 116.81875151 522.93802071 136.04297829 C515.41858195 156.42424134 507.94384673 176.82133109 500.50052071 197.23047829 C498.56579002 202.53522604 496.63099999 207.83995211 494.69583321 213.14454079 C494.46087828 213.78859179 494.22592335 214.43264278 493.98384857 215.09621048 C489.29823089 227.93894146 484.59220272 240.77412641 479.87552071 253.60547829 C479.33103279 255.08677727 479.33103279 255.08677727 478.77554512 256.59800148 C476.60904905 262.49146286 474.4416878 268.3846058 472.27408028 274.27765846 C468.93150195 283.36558681 465.59049537 292.45409274 462.25052071 301.54297829 C461.88042885 302.55003822 461.51033699 303.55709816 461.12903023 304.59467506 C455.29696136 320.46657045 449.48754045 336.34666379 443.68802071 352.23047829 C437.51680009 369.13231287 431.33219304 386.02912804 425.12552071 402.91797829 C424.75571083 403.92428291 424.38590096 404.93058754 424.00488472 405.96738625 C421.02854278 414.06584273 418.05099818 422.16385692 415.07339668 430.26185036 C412.4652024 437.3553506 409.85749675 444.44903022 407.25052071 451.54297829 C406.8807914 452.54904121 406.51106209 453.55510414 406.13012886 454.59165382 C400.29769627 470.46455717 394.48790797 486.34565722 388.68802071 502.23047829 C382.51680009 519.13231287 376.33219304 536.02912804 370.12552071 552.91797829 C369.75571083 553.92428291 369.38590096 554.93058754 369.00488472 555.96738625 C366.02854278 564.06584273 363.05099818 572.16385692 360.07339668 580.26185036 C357.4652024 587.3553506 354.85749675 594.44903022 352.25052071 601.54297829 C351.8807914 602.54904121 351.51106209 603.55510414 351.13012886 604.59165382 C345.29769627 620.46455717 339.48790797 636.34565722 333.68802071 652.23047829 C327.51680009 669.13231287 321.33219304 686.02912804 315.12552071 702.91797829 C314.75571083 703.92428291 314.38590096 704.93058754 314.00488472 705.96738625 C311.02854278 714.06584273 308.05099818 722.16385692 305.07339668 730.26185036 C302.4652024 737.3553506 299.85749675 744.44903022 297.25052071 751.54297829 C296.8807914 752.54904121 296.51106209 753.55510414 296.13012886 754.59165382 C290.29769627 770.46455717 284.48790797 786.34565722 278.68802071 802.23047829 C272.51680009 819.13231287 266.33219304 836.02912804 260.12552071 852.91797829 C259.75571083 853.92428291 259.38590096 854.93058754 259.00488472 855.96738625 C256.02854278 864.06584273 253.05099818 872.16385692 250.07339668 880.26185036 C247.4652024 887.3553506 244.85749675 894.44903022 242.25052071 901.54297829 C241.8807914 902.54904121 241.51106209 903.55510414 241.13012886 904.59165382 C235.29769627 920.46455717 229.48790797 936.34565722 223.68802071 952.23047829 C217.51680009 969.13231287 211.33219304 986.02912804 205.12552071 1002.91797829 C204.75571083 1003.92428291 204.38590096 1004.93058754 204.00488472 1005.96738625 C201.02854278 1014.06584273 198.05099818 1022.16385692 195.07339668 1030.26185036 C192.4652024 1037.3553506 189.85749675 1044.44903022 187.25052071 1051.54297829 C186.8807914 1052.54904121 186.51106209 1053.55510414 186.13012886 1054.59165382 C180.29769627 1070.46455717 174.48790797 1086.34565722 168.68802071 1102.23047829 C162.51680009 1119.13231287 156.33219304 1136.02912804 150.12552071 1152.91797829 C149.75571083 1153.92428291 149.38590096 1154.93058754 149.00488472 1155.96738625 C146.02854278 1164.06584273 143.05099818 1172.16385692 140.07339668 1180.26185036 C137.4652024 1187.3553506 134.85749675 1194.44903022 132.25052071 1201.54297829 C131.8807914 1202.54904121 131.51106209 1203.55510414 131.13012886 1204.59165382 C125.29769627 1220.46455717 119.48790797 1236.34565722 113.68802071 1252.23047829 C107.51680009 1269.13231287 101.33219304 1286.02912804 95.12552071 1302.91797829 C94.75571083 1303.92428291 94.38590096 1304.93058754 94.00488472 1305.96738625 C91.02854278 1314.06584273 88.05099818 1322.16385692 85.07339668 1330.26185036 C82.4652024 1337.3553506 79.85749675 1344.44903022 77.25052071 1351.54297829 C76.8807914 1352.54904121 76.51106209 1353.55510414 76.13012886 1354.59165382 C70.29769627 1370.46455717 64.48790797 1386.34565722 58.68802071 1402.23047829 C52.51680009 1419.13231287 46.33219304 1436.02912804 40.12552071 1452.91797829 C39.75571083 1453.92428291 39.38590096 1454.93058754 39.00488472 1455.96738625 C36.02854278 1464.06584273 33.05099818 1472.16385692 30.07339668 1480.26185036 C27.4652024 1487.3553506 24.85749675 1494.44903022 22.25052071 1501.54297829 C21.8807914 1502.54904121 21.51106209 1503.55510414 21.13012886 1504.59165382 C15.29769627 1520.46455717 9.48790797 1536.34565722 3.68802071 1552.23047829 C-2.48319991 1569.13231287 -8.66780696 1586.02912804 -14.87447929 1602.91797829 C-15.24428917 1603.92428291 -15.61409904 1604.93058754 -15.99511528 1605.96738625 C-18.97145722 1614.06584273 -21.94900182 1622.16385692 -24.92660332 1630.26185036 C-27.5347976 1637.35535062 -30.14236378 1644.44908147 -32.74947929 1651.54297829 C-33.11721458 1652.54339149 -33.48494987 1653.5438047 -33.86382866 1654.57453346 C-38.17106452 1666.29354449 -42.46731764 1678.01647889 -46.74557304 1689.74610329 C-47.15596825 1690.87120811 -47.56636345 1691.99631294 -47.98919487 1693.15551186 C-48.39832115 1694.2771624 -48.80744743 1695.39881294 -49.22897148 1696.5544529 C-56.98565731 1717.81974734 -64.79429678 1739.06203485 -72.81197929 1760.23047829 C-73.80197929 1760.23047829 -74.79197929 1760.23047829 -75.81197929 1760.23047829 C-76.39576347 1759.08796608 -76.97954765 1757.94545387 -77.58102226 1756.76832008 C-79.7978079 1752.43065442 -82.01611683 1748.09376917 -84.23483086 1743.75708961 C-85.18542621 1741.89857022 -86.13563658 1740.03985384 -87.08541679 1738.18091774 C-92.48061467 1727.6219897 -97.92061535 1717.09013136 -103.45965385 1706.60589027 C-106.69323469 1700.47798216 -109.81341304 1694.30163176 -112.86666679 1688.08204079 C-115.63042426 1682.49734466 -118.52047412 1676.98630937 -121.43697929 1671.48047829 C-127.56427612 1659.89469311 -133.38082648 1648.15790232 -139.20748711 1636.41895485 C-143.98246327 1626.80542541 -148.78081724 1617.21297342 -153.81197929 1607.73047829 C-159.82373836 1596.39980051 -165.50511162 1584.90750559 -171.20748711 1573.41895485 C-175.97210886 1563.82627209 -180.75935699 1554.25431661 -185.78072929 1544.79297829 C-192.00402479 1533.06524369 -197.87615918 1521.16407542 -203.78024101 1509.27344704 C-208.69806581 1499.37552575 -213.6299091 1489.49322986 -218.81197929 1479.73047829 C-225.02574654 1468.02406295 -230.88652221 1456.14320463 -236.78024101 1444.27344704 C-242.09746835 1433.57166325 -247.46823948 1422.91139388 -253.07040215 1412.35572243 C-258.64884233 1401.81135931 -263.90421632 1391.10343112 -269.20748711 1380.41895485 C-274.38454978 1369.99589874 -279.62486188 1359.61966129 -285.07894707 1349.33863258 C-290.45390925 1339.17643722 -295.52557961 1328.86198152 -300.6347332 1318.56446266 C-305.26679428 1309.23531711 -309.9316107 1299.93263641 -314.81197929 1290.73047829 C-320.6218838 1279.7756377 -326.12377542 1268.67181943 -331.6347332 1257.56446266 C-336.78421913 1247.19320397 -342.0088493 1236.87363088 -347.42806816 1226.6403904 C-350.30395347 1221.20903012 -353.10064607 1215.74604497 -355.81197929 1210.23047829 C-359.30188334 1203.19664269 -362.89107516 1196.22573706 -366.56979179 1189.28907204 C-370.88333705 1181.13686725 -375.09580104 1172.9333004 -379.31197929 1164.73047829 C-383.98109272 1155.64694189 -388.65901358 1146.56992404 -393.43697929 1137.54297829 C-396.28903037 1132.14612982 -399.11919117 1126.73999294 -401.87447929 1121.29297829 C-402.42233086 1120.21145485 -402.97018242 1119.12993141 -403.53463554 1118.01563454 C-408.14098346 1107.97182395 -405.66459623 1098.19502209 -401.99947929 1088.26954079 C-401.59926064 1087.1428347 -401.19904198 1086.01612862 -400.78669548 1084.85527992 C-399.70311804 1081.81465641 -398.60459065 1078.77998044 -397.49903297 1075.74729729 C-396.33595434 1072.544732 -395.19321297 1069.33492556 -394.04855156 1066.12574196 C-392.19192149 1060.9274263 -390.32493719 1055.73295901 -388.44918633 1050.54151344 C-386.14342983 1044.1567968 -383.8586544 1037.76494143 -381.58932304 1031.36719704 C-381.26670998 1030.45777855 -380.94409691 1029.54836006 -380.61170769 1028.61138344 C-379.97372117 1026.81266093 -379.33581617 1025.0139095 -378.69799614 1023.21512794 C-377.74117183 1020.51957461 -376.78178366 1017.8249478 -375.82150078 1015.13062477 C-370.22323273 999.42202688 -364.68745591 983.69169092 -359.15881157 967.95847511 C-353.94959463 953.13487977 -348.72246937 938.31788832 -343.46777153 923.510355 C-336.74282967 904.55878912 -330.07382212 885.58806004 -323.43697929 866.60547829 C-323.21570869 865.97260399 -322.9944381 865.33972969 -322.76646233 864.68767738 C-322.31930019 863.40869784 -321.87214011 862.12971759 -321.42498207 860.85073662 C-320.30927255 857.65957979 -319.19348276 854.46845104 -318.07760429 851.27735329 C-317.85700592 850.64649567 -317.63640755 850.01563805 -317.40912437 849.36566353 C-310.7450968 830.31002738 -304.03820186 811.2694751 -297.33218193 792.2285862 C-294.55206297 784.33427964 -291.77508149 776.43887394 -288.99947929 768.54297829 C-281.11515749 746.11628109 -273.21417883 723.69572352 -265.26943779 701.29035378 C-259.59241915 685.27899038 -253.94567417 669.25713333 -248.31197929 653.23047829 C-241.988794 635.24237074 -235.64245096 617.26270813 -229.26998711 599.29200172 C-223.59279382 583.28008614 -217.94586611 567.25767935 -212.31197929 551.23047829 C-205.988794 533.24237074 -199.64245096 515.26270813 -193.26998711 497.29200172 C-187.59279368 481.28008576 -181.94599065 465.25763581 -176.31197929 449.23047829 C-170.28927445 432.09873449 -164.25244479 414.97213265 -158.18697929 397.85547829 C-157.83923454 396.87411903 -157.49148979 395.89275978 -157.13320732 394.88166237 C-154.34656789 387.01832486 -151.55843788 379.15551606 -148.77023125 371.29273415 C-146.32510367 364.39723383 -143.88062663 357.50150332 -141.43697929 350.60547829 C-140.91610237 349.13566002 -140.91610237 349.13566002 -140.38470268 347.63614845 C-134.24157561 330.29815239 -128.13608391 312.94703271 -122.03713799 295.59345436 C-116.3406207 279.38732423 -110.60941327 263.19401055 -104.84347343 247.01246071 C-99.27074998 231.37044111 -93.75276361 215.70955064 -88.24947929 200.04297829 C-82.35147921 183.2531026 -76.4163706 166.47759129 -70.41421318 149.72467995 C-65.01210914 134.64187088 -59.68450539 119.53342768 -54.37447929 104.41797829 C-46.75699952 82.73614751 -39.10128731 61.06849705 -31.3721447 39.42620277 C-29.77387877 34.94610543 -28.18862043 30.46191277 -26.62475395 25.96969032 C-25.98785025 24.14126557 -25.34654629 22.31437538 -24.7050457 20.48755836 C-23.97801858 18.41595034 -23.25812623 16.34181415 -22.54781914 14.26441383 C-20.91508799 9.6408894 -19.47568914 5.65350646 -15.81197929 2.23047829 C-10.53792447 -0.09336448 -5.64942714 -0.04228225 0 0 Z " fill="#ffffff" transform="translate(2781.8119792938232,31.769521713256836)"/>
<path d="M0 0 C8.88996338 8.49723407 11.93541225 19.70265502 14.87231445 31.35864258 C18.72988003 46.58274023 24.06335534 61.14459257 29.66762161 75.795681 C30.99242737 79.26622058 32.30507626 82.74135472 33.61889648 86.21606445 C35.84013937 92.08712222 38.06741858 97.95585589 40.29833984 103.82324219 C43.62936509 112.58644515 46.93701085 121.35836373 50.23828125 130.1328125 C50.78081188 131.57460049 51.32334321 133.01638821 51.86587524 134.45817566 C52.67929181 136.61992419 53.49268363 138.78168201 54.30599785 140.94346905 C57.30554572 148.91561426 60.31079642 156.88560743 63.31640625 164.85546875 C63.85769858 166.29087753 64.39898887 167.72628707 64.9402771 169.16169739 C66.00485238 171.98474251 67.06946277 174.8077744 68.13409424 177.63079834 C70.36088928 183.53553553 72.58725122 189.44043601 74.81362724 195.34533119 C77.87698584 203.4701045 80.94042428 211.59484769 84.00415039 219.71948242 C90.95901104 238.16318498 97.91014459 256.60829044 104.86004257 275.05386353 C113.36254887 297.62017761 121.8667388 320.18585502 130.375 342.75 C130.72759195 343.68508896 130.72759195 343.68508896 131.08730698 344.6390686 C134.62057375 354.00942843 138.1540169 363.37972175 141.6875 372.75 C158.30358913 416.81342811 174.91177116 460.87983026 191.51560974 504.94787598 C195.63532226 515.88194906 199.75509798 526.81599832 203.875 537.75 C204.1454929 538.46787689 204.41598579 539.18575378 204.69467545 539.92538452 C212.52295887 560.70125902 220.35391082 581.4761255 228.1875 602.25 C237.38449922 626.63949799 246.57746979 651.03051205 255.76757812 675.42260742 C256.58781664 677.59964872 257.40805644 679.77668954 258.22829819 681.95372963 C258.7769783 683.41000608 259.32565638 684.86628329 259.87433243 686.32256126 C263.79235244 696.72154735 267.71163714 707.12005606 271.63175011 717.51825333 C281.68761813 744.19205608 291.74080483 770.86674126 301.74072266 797.56158447 C311.31672003 823.12202103 320.9511633 848.66044959 330.57998657 874.20101929 C334.53117778 884.68170376 338.48090449 895.16293922 342.4296875 905.64453125 C348.10007826 920.69585279 353.77151631 935.74677926 359.44402122 950.79730415 C361.13278914 955.27804789 362.82132133 959.7588804 364.50976562 964.23974609 C366.69550095 970.04011757 368.88206445 975.84017624 371.06921387 981.64001465 C371.89085311 983.81919392 372.71222833 985.99847275 373.5333252 988.17785645 C377.79047471 999.47679038 382.06920143 1010.76662435 386.40625 1022.03515625 C387.15809285 1023.99257424 387.90988437 1025.95001195 388.66162109 1027.9074707 C390.04801391 1031.51689946 391.44253002 1035.1230305 392.84228516 1038.72729492 C393.46025596 1040.33370816 394.07794849 1041.94022847 394.6953125 1043.546875 C394.97137329 1044.25058731 395.24743408 1044.95429962 395.53186035 1045.67933655 C401.05981257 1060.14983894 400.9756482 1072.84127692 394.64533615 1087.0969162 C391.489577 1093.83108474 388.10952147 1100.45389618 384.74609375 1107.0859375 C383.65620754 1109.25380894 382.56728208 1111.42216362 381.47926331 1113.5909729 C378.62019399 1119.28446965 375.74953496 1124.97203907 372.87591553 1130.65820312 C368.85591538 1138.61776698 364.85142754 1146.58514791 360.84571838 1154.5519104 C358.71958101 1158.78046698 356.58898364 1163.00672348 354.45445251 1167.23104858 C349.06568054 1177.91128437 343.79516112 1188.63715478 338.65873623 1199.44107628 C334.69098785 1207.7770485 330.59912073 1216.04608429 326.45285034 1224.29446411 C325.19508461 1226.79675258 323.94015959 1229.30045034 322.68579102 1231.80444336 C319.57485013 1238.01324077 316.4594454 1244.21979527 313.34411621 1250.4263916 C310.26873488 1256.55392167 307.19525388 1262.68239902 304.125 1268.8125 C303.70097397 1269.65903137 303.27694794 1270.50556274 302.84007263 1271.37774658 C297.63358508 1281.77857558 292.49932037 1292.20630356 287.52355957 1302.7199707 C281.38761916 1315.6577955 274.88240048 1328.41557276 268.44873047 1341.20703125 C262.08787772 1353.86066792 255.7944081 1366.53573487 249.71899414 1379.32910156 C244.23605092 1390.84918442 238.47765652 1402.23045816 232.73974609 1413.625 C226.92315581 1425.18358373 221.20768455 1436.77976356 215.65075684 1448.46557617 C211.80136314 1456.54836719 207.8255175 1464.56210096 203.79400635 1472.55529785 C197.91420747 1484.21759627 192.11575245 1495.9095427 186.52734375 1507.71484375 C182.91753629 1515.32320717 179.16845824 1522.85742991 175.35986328 1530.36816406 C172.01458958 1536.99625035 168.79921953 1543.68063001 165.60546875 1550.3828125 C160.04496051 1562.04760201 154.36628846 1573.65232496 148.66168213 1585.24719238 C145.79614563 1591.07215184 142.93498977 1596.89926144 140.07421875 1602.7265625 C139.51424194 1603.8671814 138.95426514 1605.00780029 138.37731934 1606.1829834 C133.37436421 1616.37855979 128.41107229 1626.5928888 123.46655273 1636.81689453 C119.91223153 1644.16539228 116.34617317 1651.50798862 112.765625 1658.84375 C112.12619461 1660.1540921 112.12619461 1660.1540921 111.47384644 1661.49090576 C109.31952408 1665.90449881 107.16282731 1670.31691077 105.00244141 1674.72753906 C101.0937715 1682.71466896 97.2158399 1690.71224125 93.4453125 1698.765625 C92.49074879 1700.79194064 91.53545797 1702.81791234 90.58013916 1704.84387207 C89.70933092 1706.7033826 88.85423417 1708.56957828 87.99951172 1710.43652344 C87.48404785 1711.5299707 86.96858398 1712.62341797 86.4375 1713.75 C85.99921875 1714.69875 85.5609375 1715.6475 85.109375 1716.625 C83.6875 1718.75 83.6875 1718.75 81.59863281 1719.3828125 C80.96795898 1719.50398438 80.33728516 1719.62515625 79.6875 1719.75 C64.36733126 1678.35151263 49.12500553 1636.92499831 33.98626709 1595.45980835 C28.32192118 1579.94550815 22.63831929 1564.43843249 16.9375 1548.9375 C9.74297371 1529.37467528 2.58877163 1509.79729469 -4.55459595 1490.21575165 C-11.56516567 1470.99857088 -18.59496815 1451.78864287 -25.65576172 1432.58984375 C-31.39489708 1416.98391902 -37.11017728 1401.36941201 -42.8125 1385.75 C-48.96056767 1368.90979724 -55.12570792 1352.07601489 -61.3125 1335.25 C-67.90241487 1317.32762531 -74.46567172 1299.39566598 -81.01428223 1281.4581604 C-86.6784539 1265.94441255 -92.36201081 1250.43793715 -98.0625 1234.9375 C-104.98457408 1216.11372109 -111.87440443 1197.27829148 -118.75 1178.4375 C-118.99388836 1177.76920795 -119.23777672 1177.10091591 -119.48905563 1176.41237259 C-121.92915411 1169.72607812 -124.36894457 1163.03967128 -126.80853748 1156.35319233 C-131.24524927 1144.19302466 -135.68379482 1132.03352737 -140.125 1119.875 C-140.51163818 1118.81643799 -140.89827637 1117.75787598 -141.29663086 1116.66723633 C-147.29757684 1100.23969381 -153.32616366 1083.82242694 -159.36425781 1067.4085083 C-165.74702771 1050.05378207 -172.0702841 1032.67781763 -178.37857056 1015.29589844 C-184.84261832 997.48905726 -191.37336179 979.7076642 -197.9375 961.9375 C-204.85244118 943.217068 -211.67920562 924.46785889 -218.412323 905.68130493 C-224.34752174 889.12728112 -230.39946928 872.6187497 -236.5 856.125 C-244.11322132 835.53962081 -251.59783982 814.91198117 -259 794.25 C-266.09519875 774.44573552 -273.24544061 754.66429199 -280.52484131 734.92675781 C-286.62280385 718.39093074 -292.63850043 701.82648718 -298.625 685.25 C-305.59486798 665.95225898 -312.63627521 646.68266172 -319.75 627.4375 C-327.26713543 607.10063011 -334.67136141 586.72562065 -342.00543213 566.32226562 C-348.83330432 547.32809329 -355.74659979 528.36785004 -362.75 509.4375 C-370.25703676 489.143245 -377.63728481 468.80678351 -384.9375 448.4375 C-391.88879425 429.04458648 -398.86165526 409.660446 -405.9375 390.3125 C-406.31891144 389.26953766 -406.70032288 388.22657532 -407.09329224 387.15200806 C-411.55229661 374.96541374 -416.03359473 362.78710291 -420.52734375 350.61328125 C-420.96675293 349.42281693 -421.40616211 348.2323526 -421.85888672 347.0058136 C-422.29974609 345.81143173 -422.74060547 344.61704987 -423.19482422 343.38647461 C-423.63695251 342.18860321 -424.07908081 340.99073181 -424.53460693 339.75656128 C-425.42746336 337.33752248 -426.32040755 334.91851608 -427.21343994 332.49954224 C-433.6977676 314.92895766 -440.08795818 297.3268577 -446.40701294 279.69622803 C-452.44858111 262.84584721 -458.60662898 246.04051455 -464.8125 229.25 C-471.45485773 211.27810951 -478.03167487 193.28527927 -484.5 175.25 C-490.27021006 159.1638855 -496.09525304 143.09974028 -502 127.0625 C-503.48445104 123.0299759 -504.96886575 118.99743844 -506.453125 114.96484375 C-506.83414368 113.92966614 -507.21516235 112.89448853 -507.60772705 111.82794189 C-512.33996502 98.96543151 -517.04921684 86.09452482 -521.75283813 73.2215271 C-522.72882309 70.5505478 -523.70551771 67.87983003 -524.68295288 65.2093811 C-525.61241579 62.66994217 -526.54102128 60.13019286 -527.46870422 57.59010315 C-528.37688372 55.1035172 -529.28628143 52.61737582 -530.19694519 50.13169861 C-532.63114647 43.46245944 -535.00380208 36.77811266 -537.30908203 30.06347656 C-538.05116085 27.91714465 -538.79401109 25.77108091 -539.53695869 23.62504959 C-540.23869338 21.58332495 -540.92587399 19.53707824 -541.61277771 17.49032593 C-542.0390596 16.2581131 -542.46534149 15.02590027 -542.90454102 13.75634766 C-543.27402359 12.6666568 -543.64350616 11.57696594 -544.02418518 10.45425415 C-545.06668975 7.64973288 -545.06668975 7.64973288 -547.37739468 6.43645287 C-549.3125 4.75 -549.3125 4.75 -549.703125 2.05078125 C-549.65671875 1.06464844 -549.6103125 0.07851562 -549.5625 -0.9375 C-549.52640625 -1.93136719 -549.4903125 -2.92523438 -549.453125 -3.94921875 C-549.40671875 -4.70847656 -549.3603125 -5.46773438 -549.3125 -6.25 C-548.27632428 -6.24924056 -547.24014855 -6.24848112 -546.17257357 -6.24769866 C-500.46152852 -6.21432827 -454.75048253 -6.1834773 -409.03942871 -6.16531372 C-408.34633173 -6.16503761 -407.65323476 -6.16476149 -406.93913484 -6.16447701 C-391.87276551 -6.15848985 -376.80639605 -6.15294968 -361.74002638 -6.14786934 C-354.35044725 -6.14537488 -346.96086815 -6.14278174 -339.57128906 -6.14013672 C-338.83597499 -6.1398752 -338.10066092 -6.13961368 -337.3430646 -6.13934424 C-313.55092035 -6.13083626 -289.75878566 -6.11582469 -265.96664719 -6.09740556 C-241.49737415 -6.07849681 -217.02810639 -6.06621904 -192.55882617 -6.06217002 C-189.09503917 -6.06159379 -185.63125219 -6.06094252 -182.16746521 -6.06024551 C-181.48580702 -6.06011067 -180.80414884 -6.05997582 -180.10183435 -6.05983689 C-169.17172887 -6.05748234 -158.24163983 -6.04823039 -147.31154103 -6.03633593 C-136.29724365 -6.02449934 -125.28296002 -6.02024026 -114.26865619 -6.02299725 C-108.31138029 -6.02427215 -102.35415221 -6.02238423 -96.39688492 -6.01158905 C-66.04479537 -5.77857842 -66.04479537 -5.77857842 -35.78798676 -7.83268929 C-23.03673806 -9.21138196 -10.2630188 -8.32444858 0 0 Z " fill="#ffffff" transform="translate(549.3125,72.25)"/>
<path d="M0 0 C2 1 2 1 2 1 Z " fill="#ffffff" transform="translate(3347,2542)"/>
<path d="" fill="#ffffff" transform="translate(0,0)"/>
<path d="" fill="#ffffff" transform="translate(0,0)"/>
<path d="" fill="#ffffff" transform="translate(0,0)"/>
<path d="" fill="#ffffff" transform="translate(0,0)"/>
<path d="M0 0 C2 1 2 1 2 1 Z " fill="#ffffff" transform="translate(3345,0)"/>
<path d="" fill="#ffffff" transform="translate(0,0)"/>
<path d="" fill="#ffffff" transform="translate(0,0)"/>
<path d="" fill="#ffffff" transform="translate(0,0)"/>
<path d="" fill="#ffffff" transform="translate(0,0)"/>
<path d="" fill="#ffffff" transform="translate(0,0)"/>
<path d="" fill="#ffffff" transform="translate(0,0)"/>
<path d="" fill="#ffffff" transform="translate(0,0)"/>
<path d="" fill="#ffffff" transform="translate(0,0)"/>
<path d="" fill="#ffffff" transform="translate(0,0)"/>
<path d="" fill="#ffffff" transform="translate(0,0)"/>
<path d="" fill="#ffffff" transform="translate(0,0)"/>
<path d="" fill="#ffffff" transform="translate(0,0)"/>
<path d="" fill="#ffffff" transform="translate(0,0)"/>
<path d="" fill="#ffffff" transform="translate(0,0)"/>
</svg>
